<svg width="52" height="53" viewBox="0 0 52 53" fill="none" xmlns="http://www.w3.org/2000/svg">
<path d="M1.29858 14.1125L25.9581 1.48828L50.4685 14.1125V39.3611L25.9581 51.9185L1.29858 39.3611V14.1125Z" fill="white"/>
<path d="M1.29858 14.1125L25.9581 1.48828L50.4685 14.1125M1.29858 14.1125L25.9581 26.8704M1.29858 14.1125V39.3611L25.9581 51.9186M25.9581 26.8704L50.4685 14.1125M25.9581 26.8704V51.9186M50.4685 14.1125V39.3611L25.9581 51.9186" stroke="#832FFF" stroke-width="1.2" stroke-dasharray="3 3"/>
<path d="M25.3336 1.48816V3.06619H26.5336V1.48816H25.3336ZM25.3336 6.22226V9.37833H26.5336V6.22226H25.3336ZM25.3336 12.5344V15.6905H26.5336V12.5344H25.3336ZM25.3336 18.8465V22.0026H26.5336V18.8465H25.3336ZM25.3336 25.1587V26.7367H26.5336V25.1587H25.3336Z" fill="#832FFF"/>
<path d="M25.3608 26.3275L24.1414 26.9587L24.791 27.9676L26.0105 27.3364L25.3608 26.3275ZM21.7025 28.2211L19.2637 29.4835L19.9134 30.4924L22.3522 29.23L21.7025 28.2211ZM16.8249 30.7459L14.3861 32.0084L15.0358 33.0173L17.4746 31.7549L16.8249 30.7459ZM11.9473 33.2708L9.50849 34.5332L10.1582 35.5421L12.597 34.2797L11.9473 33.2708ZM7.06968 35.7957L4.63087 37.0581L5.28055 38.067L7.71937 36.8046L7.06968 35.7957ZM2.19206 38.3205L0.97265 38.9517L1.62234 39.9606L2.84174 39.3294L2.19206 38.3205Z" fill="#832FFF"/>
<path d="M25.6088 27.3364L26.8282 27.9676L27.4779 26.9587L26.2585 26.3275L25.6088 27.3364ZM29.267 29.23L31.7058 30.4924L32.3555 29.4835L29.9167 28.2211L29.267 29.23ZM34.1447 31.7549L36.5835 33.0173L37.2331 32.0084L34.7943 30.7459L34.1447 31.7549ZM39.0223 34.2797L41.4611 35.5421L42.1108 34.5332L39.672 33.2708L39.0223 34.2797ZM43.8999 36.8046L46.3387 38.067L46.9884 37.0581L44.5496 35.7957L43.8999 36.8046ZM48.7775 39.3294L49.9969 39.9606L50.6466 38.9517L49.4272 38.3205L48.7775 39.3294Z" fill="#832FFF"/>
</svg>
