<svg width="309" height="184" viewBox="0 0 309 184" fill="none" xmlns="http://www.w3.org/2000/svg">
<rect x="146.006" y="20.3532" width="111.726" height="77.8841" fill="#F5F7FE"/>
<rect x="146.006" y="56.6057" width="52.7304" height="41.6316" fill="#EDF0F9"/>
<g filter="url(#filter0_d)">
<path d="M152.57 73.2896C152.57 70.395 152.57 68.9476 153.151 67.85C153.62 66.9642 154.345 66.2398 155.23 65.7708C156.328 65.1896 157.775 65.1896 160.67 65.1896H181.385C184.28 65.1896 185.727 65.1896 186.825 65.7708C187.711 66.2398 188.435 66.9642 188.904 67.85C189.485 68.9476 189.485 70.395 189.485 73.2896V81.5515C189.485 84.4461 189.485 85.8935 188.904 86.9911C188.435 87.8769 187.711 88.6013 186.825 89.0703C185.727 89.6515 184.28 89.6515 181.385 89.6515H160.67C157.775 89.6515 156.328 89.6515 155.23 89.0703C154.345 88.6013 153.62 87.8769 153.151 86.9911C152.57 85.8935 152.57 84.4461 152.57 81.5515V73.2896Z" fill="#EDF0F9"/>
<path d="M152.733 85.6828C152.613 84.9754 152.581 84.0992 152.573 82.9319L153.073 82.9283C153.07 82.51 153.07 82.0536 153.07 81.5515V79.486H152.57V75.3551H153.07V73.2896C153.07 72.7874 153.07 72.3311 153.073 71.9128L152.573 71.9092C152.581 70.7419 152.613 69.8657 152.733 69.1583L153.226 69.2417C153.305 68.7725 153.423 68.4051 153.593 68.084C153.698 67.8852 153.818 67.6955 153.95 67.5161L153.548 67.219C153.844 66.8182 154.199 66.4638 154.599 66.1678L154.897 66.5699C155.076 66.4374 155.266 66.3179 155.464 66.2127C155.786 66.0426 156.153 65.925 156.622 65.8456L156.539 65.3526C157.246 65.2328 158.122 65.2011 159.29 65.1927L159.293 65.6926C159.712 65.6896 160.168 65.6896 160.67 65.6896H162.396V65.1896H165.849V65.6896H169.301V65.1896H172.754V65.6896H176.206V65.1896H179.659V65.6896H181.385C181.887 65.6896 182.344 65.6896 182.762 65.6926L182.766 65.1927C183.933 65.2011 184.809 65.2328 185.517 65.3526L185.433 65.8456C185.902 65.925 186.27 66.0426 186.591 66.2127C186.79 66.3179 186.979 66.4374 187.159 66.5699L187.456 66.1678C187.857 66.4638 188.211 66.8182 188.507 67.219L188.105 67.5161C188.237 67.6955 188.357 67.8852 188.462 68.084C188.632 68.4051 188.75 68.7725 188.829 69.2417L189.322 69.1583C189.442 69.8657 189.474 70.7419 189.482 71.9092L188.982 71.9128C188.985 72.3311 188.985 72.7874 188.985 73.2896V75.3551H189.485V79.486H188.985V81.5515C188.985 82.0537 188.985 82.51 188.982 82.9283L189.482 82.9319C189.474 84.0992 189.442 84.9754 189.322 85.6828L188.829 85.5994C188.75 86.0686 188.632 86.436 188.462 86.7571C188.357 86.9559 188.237 87.1456 188.105 87.325L188.507 87.6221C188.211 88.0229 187.857 88.3773 187.456 88.6733L187.159 88.2712C186.979 88.4037 186.79 88.5232 186.591 88.6284C186.27 88.7985 185.902 88.9161 185.433 88.9955L185.517 89.4885C184.809 89.6083 183.933 89.64 182.766 89.6484L182.762 89.1484C182.344 89.1515 181.887 89.1515 181.385 89.1515H179.659V89.6515H176.206V89.1515H172.754V89.6515H169.301V89.1515H165.849V89.6515H162.396V89.1515H160.67C160.168 89.1515 159.712 89.1515 159.293 89.1484L159.29 89.6484C158.122 89.64 157.246 89.6083 156.539 89.4885L156.622 88.9955C156.153 88.9161 155.786 88.7985 155.464 88.6284C155.266 88.5232 155.076 88.4037 154.897 88.2712L154.599 88.6733C154.199 88.3773 153.844 88.0229 153.548 87.6221L153.95 87.325C153.818 87.1456 153.698 86.9559 153.593 86.7571C153.423 86.436 153.305 86.0686 153.226 85.5994L152.733 85.6828Z" stroke="#9A9A9A" stroke-dasharray="3 3"/>
</g>
<rect x="205.001" y="20.3532" width="52.7304" height="41.6316" fill="#EDF0F9"/>
<g filter="url(#filter1_d)">
<path d="M211.565 37.0372C211.565 34.1425 211.565 32.6952 212.146 31.5975C212.615 30.7117 213.34 29.9874 214.226 29.5184C215.323 28.9372 216.771 28.9372 219.665 28.9372H240.38C243.275 28.9372 244.722 28.9372 245.82 29.5184C246.706 29.9874 247.43 30.7117 247.899 31.5975C248.48 32.6952 248.48 34.1425 248.48 37.0372V45.299C248.48 48.1937 248.48 49.641 247.899 50.7387C247.43 51.6244 246.706 52.3488 245.82 52.8178C244.722 53.399 243.275 53.399 240.38 53.399H219.665C216.771 53.399 215.323 53.399 214.226 52.8178C213.34 52.3488 212.615 51.6244 212.146 50.7387C211.565 49.641 211.565 48.1937 211.565 45.299V37.0372Z" fill="#EDF0F9"/>
<path d="M211.728 49.4304C211.608 48.7229 211.577 47.8467 211.568 46.6795L212.068 46.6759C212.065 46.2575 212.065 45.8012 212.065 45.299V43.2335H211.565V39.1026H212.065V37.0372C212.065 36.535 212.065 36.0786 212.068 35.6603L211.568 35.6567C211.577 34.4895 211.608 33.6133 211.728 32.9058L212.221 32.9893C212.301 32.52 212.418 32.1527 212.588 31.8315C212.693 31.6327 212.813 31.443 212.945 31.2636L212.543 30.9666C212.839 30.5657 213.194 30.2114 213.595 29.9153L213.892 30.3175C214.071 30.185 214.261 30.0655 214.46 29.9602C214.781 29.7902 215.148 29.6725 215.617 29.5931L215.534 29.1001C216.241 28.9803 217.117 28.9486 218.285 28.9402L218.288 29.4402C218.707 29.4372 219.163 29.4372 219.665 29.4372H221.391V28.9372H224.844V29.4372H228.296V28.9372H231.749V29.4372H235.202V28.9372H238.654V29.4372H240.38C240.882 29.4372 241.339 29.4372 241.757 29.4402L241.761 28.9402C242.928 28.9486 243.804 28.9803 244.512 29.1001L244.428 29.5931C244.897 29.6725 245.265 29.7902 245.586 29.9602C245.785 30.0655 245.974 30.185 246.154 30.3175L246.451 29.9153C246.852 30.2114 247.206 30.5657 247.502 30.9666L247.1 31.2636C247.232 31.443 247.352 31.6327 247.457 31.8315C247.627 32.1527 247.745 32.52 247.824 32.9893L248.317 32.9058C248.437 33.6133 248.469 34.4895 248.477 35.6567L247.977 35.6603C247.98 36.0787 247.98 36.535 247.98 37.0372V39.1026H248.48V43.2336H247.98V45.299C247.98 45.8012 247.98 46.2575 247.977 46.6759L248.477 46.6795C248.469 47.8467 248.437 48.7229 248.317 49.4304L247.824 49.3469C247.745 49.8162 247.627 50.1835 247.457 50.5047C247.352 50.7035 247.232 50.8932 247.1 51.0726L247.502 51.3696C247.206 51.7704 246.852 52.1248 246.451 52.4209L246.154 52.0187C245.974 52.1512 245.785 52.2707 245.586 52.376C245.265 52.546 244.897 52.6636 244.428 52.7431L244.512 53.2361C243.804 53.3559 242.928 53.3876 241.761 53.396L241.757 52.896C241.339 52.899 240.882 52.899 240.38 52.899H238.654V53.399H235.202V52.899H231.749V53.399H228.296V52.899H224.844V53.399H221.391V52.899H219.665C219.163 52.899 218.707 52.899 218.288 52.896L218.285 53.396C217.117 53.3876 216.241 53.3559 215.534 53.2361L215.617 52.7431C215.148 52.6636 214.781 52.546 214.46 52.376C214.261 52.2707 214.071 52.1512 213.892 52.0187L213.595 52.4209C213.194 52.1248 212.839 51.7704 212.543 51.3696L212.945 51.0726C212.813 50.8932 212.693 50.7034 212.588 50.5047C212.418 50.1835 212.301 49.8162 212.221 49.3469L211.728 49.4304Z" stroke="#9A9A9A" stroke-dasharray="3 3"/>
</g>
<g filter="url(#filter2_d)">
<path d="M171.267 49.6042C171.267 44.9727 171.267 42.657 172.196 40.9007C172.947 39.4835 174.106 38.3244 175.523 37.574C177.279 36.6442 179.595 36.6442 184.227 36.6442H215.368C219.999 36.6442 222.315 36.6442 224.071 37.574C225.489 38.3244 226.648 39.4835 227.398 40.9007C228.328 42.657 228.328 44.9727 228.328 49.6042V61.4959C228.328 66.1274 228.328 68.4431 227.398 70.1994C226.648 71.6166 225.489 72.7756 224.071 73.526C222.315 74.4559 219.999 74.4559 215.368 74.4559H184.227C179.595 74.4559 177.279 74.4559 175.523 73.526C174.106 72.7756 172.947 71.6166 172.196 70.1994C171.267 68.4431 171.267 66.1274 171.267 61.4959V49.6042Z" fill="#FCFCFC"/>
</g>
<rect x="187.153" y="45.3505" width="24.6903" height="20.4039" fill="#FCFCFC" stroke="#8A3CFF" stroke-dasharray="3 3"/>
<g clip-path="url(#clip0)">
<g filter="url(#filter3_d)">
<path d="M227.561 79.1432C227.736 79.5641 227.567 81.1583 226.637 81.5278C225.708 81.8974 224.519 81.5278 224.519 81.5278L222.363 77.216L218.637 80.942V64.1136L230.052 75.5278H225.799C226.008 75.928 227.338 78.6084 227.561 79.1432Z" fill="white"/>
<path fill-rule="evenodd" clip-rule="evenodd" d="M219.637 66.5278V78.5278L222.637 75.5278L225.137 80.5278C225.137 80.5278 225.814 80.7436 226.137 80.5278C226.461 80.312 226.783 79.8774 226.637 79.5278C225.95 77.8774 224.137 74.5278 224.137 74.5278H227.637L219.637 66.5278Z" fill="black"/>
</g>
</g>
<rect x="50.5398" y="46.894" width="81.5078" height="51.123" fill="#EDF0F9"/>
<g filter="url(#filter4_d)">
<path d="M60.6868 66.5082C60.6868 61.8767 60.6868 59.561 61.6166 57.8047C62.367 56.3875 63.5261 55.2285 64.9433 54.4781C66.6996 53.5482 69.0153 53.5482 73.6468 53.5482H104.788C109.42 53.5482 111.735 53.5482 113.492 54.4781C114.909 55.2285 116.068 56.3875 116.818 57.8047C117.748 59.561 117.748 61.8767 117.748 66.5082V78.3999C117.748 83.0314 117.748 85.3472 116.818 87.1034C116.068 88.5206 114.909 89.6797 113.492 90.4301C111.735 91.3599 109.42 91.3599 104.788 91.3599H73.6468C69.0153 91.3599 66.6996 91.3599 64.9433 90.4301C63.5261 89.6797 62.367 88.5206 61.6166 87.1034C60.6868 85.3472 60.6868 83.0314 60.6868 78.3999V66.5082Z" fill="#FCFCFC"/>
</g>
<rect x="76.573" y="62.2546" width="24.6903" height="20.4039" fill="#FCFCFC" stroke="#8A3CFF" stroke-dasharray="3 3"/>
<path d="M84.7033 23.434L75.5083 32.629L71.1812 28.3019L72.2597 27.2234L75.5083 30.4643L83.6248 22.3554L84.7033 23.434Z" fill="#9FE177"/>
<path d="M103.887 34.4111H96.9685C96.2042 34.4111 95.5847 33.7915 95.5847 33.0273V24.0328H94.2009V22.649H96.9685V21.9571C96.9685 21.1929 97.588 20.5734 98.3522 20.5734H102.504C103.268 20.5734 103.887 21.1929 103.887 21.9571V22.649H106.655V24.0328H105.271V33.0273C105.271 33.7915 104.652 34.4111 103.887 34.4111ZM96.9685 24.0328V33.0273H103.887V24.0328H96.9685ZM98.3522 21.9571V22.649H102.504V21.9571H98.3522Z" fill="#9A9A9A"/>
<defs>
<filter id="filter0_d" x="92.5701" y="37.1896" width="156.915" height="144.462" filterUnits="userSpaceOnUse" color-interpolation-filters="sRGB">
<feFlood flood-opacity="0" result="BackgroundImageFix"/>
<feColorMatrix in="SourceAlpha" type="matrix" values="0 0 0 0 0 0 0 0 0 0 0 0 0 0 0 0 0 0 127 0"/>
<feOffset dy="32"/>
<feGaussianBlur stdDeviation="30"/>
<feColorMatrix type="matrix" values="0 0 0 0 0.27451 0 0 0 0 0.262745 0 0 0 0 0.309804 0 0 0 0.08 0"/>
<feBlend mode="normal" in2="BackgroundImageFix" result="effect1_dropShadow"/>
<feBlend mode="normal" in="SourceGraphic" in2="effect1_dropShadow" result="shape"/>
</filter>
<filter id="filter1_d" x="151.565" y="0.93718" width="156.915" height="144.462" filterUnits="userSpaceOnUse" color-interpolation-filters="sRGB">
<feFlood flood-opacity="0" result="BackgroundImageFix"/>
<feColorMatrix in="SourceAlpha" type="matrix" values="0 0 0 0 0 0 0 0 0 0 0 0 0 0 0 0 0 0 127 0"/>
<feOffset dy="32"/>
<feGaussianBlur stdDeviation="30"/>
<feColorMatrix type="matrix" values="0 0 0 0 0.27451 0 0 0 0 0.262745 0 0 0 0 0.309804 0 0 0 0.08 0"/>
<feBlend mode="normal" in2="BackgroundImageFix" result="effect1_dropShadow"/>
<feBlend mode="normal" in="SourceGraphic" in2="effect1_dropShadow" result="shape"/>
</filter>
<filter id="filter2_d" x="111.267" y="8.64417" width="177.061" height="157.812" filterUnits="userSpaceOnUse" color-interpolation-filters="sRGB">
<feFlood flood-opacity="0" result="BackgroundImageFix"/>
<feColorMatrix in="SourceAlpha" type="matrix" values="0 0 0 0 0 0 0 0 0 0 0 0 0 0 0 0 0 0 127 0"/>
<feOffset dy="32"/>
<feGaussianBlur stdDeviation="30"/>
<feColorMatrix type="matrix" values="0 0 0 0 0.27451 0 0 0 0 0.262745 0 0 0 0 0.309804 0 0 0 0.08 0"/>
<feBlend mode="normal" in2="BackgroundImageFix" result="effect1_dropShadow"/>
<feBlend mode="normal" in="SourceGraphic" in2="effect1_dropShadow" result="shape"/>
</filter>
<filter id="filter3_d" x="216.837" y="63.3136" width="15.0142" height="21.1785" filterUnits="userSpaceOnUse" color-interpolation-filters="sRGB">
<feFlood flood-opacity="0" result="BackgroundImageFix"/>
<feColorMatrix in="SourceAlpha" type="matrix" values="0 0 0 0 0 0 0 0 0 0 0 0 0 0 0 0 0 0 127 0"/>
<feOffset dy="1"/>
<feGaussianBlur stdDeviation="0.9"/>
<feColorMatrix type="matrix" values="0 0 0 0 0 0 0 0 0 0 0 0 0 0 0 0 0 0 0.65 0"/>
<feBlend mode="normal" in2="BackgroundImageFix" result="effect1_dropShadow"/>
<feBlend mode="normal" in="SourceGraphic" in2="effect1_dropShadow" result="shape"/>
</filter>
<filter id="filter4_d" x="0.686768" y="25.5482" width="177.061" height="157.812" filterUnits="userSpaceOnUse" color-interpolation-filters="sRGB">
<feFlood flood-opacity="0" result="BackgroundImageFix"/>
<feColorMatrix in="SourceAlpha" type="matrix" values="0 0 0 0 0 0 0 0 0 0 0 0 0 0 0 0 0 0 127 0"/>
<feOffset dy="32"/>
<feGaussianBlur stdDeviation="30"/>
<feColorMatrix type="matrix" values="0 0 0 0 0.27451 0 0 0 0 0.262745 0 0 0 0 0.309804 0 0 0 0.08 0"/>
<feBlend mode="normal" in2="BackgroundImageFix" result="effect1_dropShadow"/>
<feBlend mode="normal" in="SourceGraphic" in2="effect1_dropShadow" result="shape"/>
</filter>
<clipPath id="clip0">
<rect width="17.8328" height="17.8328" fill="white" transform="translate(214.637 64.1136)"/>
</clipPath>
</defs>
</svg>
