<svg width="238" height="140" viewBox="0 0 238 140" fill="none" xmlns="http://www.w3.org/2000/svg">
<rect x="0.608887" y="2.37199" width="236.939" height="122.381" fill="#ECEFF8"/>
<rect x="85.0354" y="40.6051" width="68.0859" height="41.9113" fill="url(#paint0_linear)"/>
<path d="M0.608887 0.372246L69.6026 41.1258V84.1949L0.608887 122.753V0.372246Z" fill="url(#paint1_linear)"/>
<path d="M11.5591 44.1491L30.6522 50.7464V74.4964L11.5591 81.6214L11.5591 44.1491Z" fill="#ECEFF8"/>
<path d="M39.4885 52.7509L49.8159 56.3194V69.1656L39.4885 73.0195L39.4885 52.7509Z" fill="#ECEFF8"/>
<path d="M57.4915 58.3991L62.0631 59.9787V65.6654L57.4915 67.3714L57.4915 58.3991Z" fill="#ECEFF8"/>
<path d="M237.547 122.753L168.554 82.3758L168.554 40.6258L237.547 0.371971L237.547 122.753Z" fill="url(#paint2_linear)"/>
<path d="M226.597 81.6214L207.504 75.0241L207.504 51.2741L226.597 44.1491L226.597 81.6214Z" fill="#ECEFF8"/>
<path d="M198.668 73.0195L188.341 69.4511L188.341 56.6048L198.668 52.751L198.668 73.0195Z" fill="#ECEFF8"/>
<path d="M180.665 67.3714L176.093 65.7917L176.093 60.1051L180.665 58.3991L180.665 67.3714Z" fill="#ECEFF8"/>
<rect x="92.3284" y="56.2621" width="14.5" height="10.5973" fill="#ECEFF8"/>
<rect x="111.828" y="56.2621" width="14.5" height="10.5973" fill="#ECEFF8"/>
<rect x="131.328" y="56.2621" width="14.5" height="10.5973" fill="#ECEFF8"/>
<rect x="62.043" y="106.253" width="114" height="33" rx="16.5" fill="#CAD3ED"/>
<path d="M74.2643 126.453H75.3616V123.896H76.8531C78.5399 123.896 79.3744 122.877 79.3744 121.535C79.3744 120.196 78.547 119.181 76.8567 119.181H74.2643V126.453ZM75.3616 122.966V120.122H76.7395C77.8261 120.122 78.27 120.711 78.27 121.535C78.27 122.359 77.8261 122.966 76.7537 122.966H75.3616ZM80.5756 126.453H81.6374V123.122C81.6374 122.409 82.1878 121.894 82.9407 121.894C83.1608 121.894 83.4094 121.933 83.4946 121.958V120.942C83.3881 120.928 83.1786 120.917 83.0436 120.917C82.4044 120.917 81.8576 121.279 81.6587 121.865H81.6019V120.999H80.5756V126.453ZM86.569 126.563C87.7587 126.563 88.6003 125.977 88.8418 125.09L87.8368 124.909C87.645 125.423 87.1834 125.686 86.5797 125.686C85.6706 125.686 85.0598 125.097 85.0314 124.046H88.9092V123.669C88.9092 121.698 87.7302 120.928 86.4945 120.928C84.9746 120.928 83.9731 122.085 83.9731 123.762C83.9731 125.455 84.9604 126.563 86.569 126.563ZM85.0349 123.25C85.0775 122.476 85.6386 121.805 86.5016 121.805C87.3254 121.805 87.8652 122.416 87.8687 123.25H85.0349ZM94.5875 120.999H93.4476L92.0697 125.196H92.0129L90.6315 120.999H89.4916L91.4731 126.453H92.6095L94.5875 120.999ZM95.5854 126.453H96.6472V120.999H95.5854V126.453ZM96.1216 120.157C96.4873 120.157 96.7927 119.873 96.7927 119.525C96.7927 119.177 96.4873 118.889 96.1216 118.889C95.7523 118.889 95.4504 119.177 95.4504 119.525C95.4504 119.873 95.7523 120.157 96.1216 120.157ZM100.426 126.563C101.616 126.563 102.458 125.977 102.699 125.09L101.694 124.909C101.502 125.423 101.041 125.686 100.437 125.686C99.528 125.686 98.9172 125.097 98.8888 124.046H102.767V123.669C102.767 121.698 101.588 120.928 100.352 120.928C98.832 120.928 97.8306 122.085 97.8306 123.762C97.8306 125.455 98.8178 126.563 100.426 126.563ZM98.8924 123.25C98.935 122.476 99.496 121.805 100.359 121.805C101.183 121.805 101.723 122.416 101.726 123.25H98.8924ZM105.117 126.453H106.197L107.305 122.515H107.387L108.495 126.453H109.578L111.179 120.999H110.082L109.02 124.987H108.967L107.902 120.999H106.804L105.732 125.004H105.679L104.61 120.999H103.512L105.117 126.453ZM117.351 126.553C118.836 126.553 119.926 125.665 119.922 124.458C119.926 123.538 119.368 122.877 118.402 122.728V122.671C119.162 122.476 119.656 121.879 119.652 121.063C119.656 119.994 118.779 119.081 117.38 119.081C116.044 119.081 114.972 119.887 114.936 121.07H115.998C116.023 120.402 116.652 119.997 117.365 119.997C118.108 119.997 118.594 120.448 118.591 121.119C118.594 121.823 118.029 122.284 117.223 122.284H116.609V123.179H117.223C118.232 123.179 118.814 123.69 118.814 124.422C118.814 125.129 118.2 125.608 117.344 125.608C116.556 125.608 115.941 125.203 115.899 124.557H114.784C114.83 125.743 115.881 126.553 117.351 126.553ZM123.718 126.453C125.934 126.453 127.216 125.079 127.216 122.806C127.216 120.544 125.934 119.181 123.793 119.181H121.364V126.453H123.718ZM122.461 125.494V120.139H123.725C125.316 120.139 126.137 121.091 126.137 122.806C126.137 124.529 125.316 125.494 123.658 125.494H122.461ZM133.429 128.612C134.817 128.612 135.89 127.977 135.89 126.574V120.999H134.849V121.883H134.771C134.583 121.546 134.207 120.928 133.191 120.928C131.874 120.928 130.904 121.968 130.904 123.705C130.904 125.445 131.895 126.372 133.184 126.372C134.185 126.372 134.572 125.807 134.764 125.459H134.832V126.531C134.832 127.387 134.246 127.757 133.44 127.757C132.555 127.757 132.211 127.313 132.023 127L131.11 127.377C131.398 128.044 132.126 128.612 133.429 128.612ZM133.418 125.491C132.47 125.491 131.977 124.763 131.977 123.69C131.977 122.643 132.459 121.83 133.418 121.83C134.345 121.83 134.842 122.586 134.842 123.69C134.842 124.816 134.334 125.491 133.418 125.491ZM138.901 126.574C139.803 126.574 140.311 126.116 140.513 125.708H140.556V126.453H141.593V122.831C141.593 121.244 140.343 120.928 139.477 120.928C138.489 120.928 137.58 121.325 137.225 122.32L138.223 122.547C138.379 122.16 138.777 121.787 139.491 121.787C140.176 121.787 140.528 122.146 140.528 122.764V122.788C140.528 123.176 140.13 123.168 139.15 123.282C138.116 123.403 137.058 123.673 137.058 124.912C137.058 125.985 137.864 126.574 138.901 126.574ZM139.132 125.722C138.532 125.722 138.099 125.452 138.099 124.926C138.099 124.358 138.603 124.156 139.217 124.074C139.562 124.028 140.379 123.936 140.531 123.783V124.486C140.531 125.132 140.016 125.722 139.132 125.722ZM144.069 119.181H143.007V126.453H144.069V119.181ZM146.559 119.181H145.497V126.453H146.559V119.181ZM150.339 126.563C151.528 126.563 152.37 125.977 152.611 125.09L151.606 124.909C151.415 125.423 150.953 125.686 150.349 125.686C149.44 125.686 148.829 125.097 148.801 124.046H152.679V123.669C152.679 121.698 151.5 120.928 150.264 120.928C148.744 120.928 147.743 122.085 147.743 123.762C147.743 125.455 148.73 126.563 150.339 126.563ZM148.804 123.25C148.847 122.476 149.408 121.805 150.271 121.805C151.095 121.805 151.635 122.416 151.638 123.25H148.804ZM153.857 126.453H154.919V123.122C154.919 122.409 155.469 121.894 156.222 121.894C156.442 121.894 156.691 121.933 156.776 121.958V120.942C156.669 120.928 156.46 120.917 156.325 120.917C155.686 120.917 155.139 121.279 154.94 121.865H154.883V120.999H153.857V126.453ZM158.532 128.499C159.409 128.499 159.963 128.041 160.279 127.181L162.534 121.009L161.387 120.999L160.006 125.232H159.949L158.567 120.999H157.431L159.427 126.524L159.295 126.887C159.026 127.611 158.646 127.671 158.063 127.512L157.807 128.382C157.935 128.438 158.212 128.499 158.532 128.499Z" fill="white"/>
<defs>
<linearGradient id="paint0_linear" x1="119.078" y1="40.6051" x2="119.078" y2="116.626" gradientUnits="userSpaceOnUse">
<stop stop-color="white"/>
<stop offset="1" stop-color="white" stop-opacity="0"/>
</linearGradient>
<linearGradient id="paint1_linear" x1="0.608887" y1="66.6258" x2="75.9409" y2="66.6258" gradientUnits="userSpaceOnUse">
<stop stop-color="white"/>
<stop offset="1" stop-color="white" stop-opacity="0.54"/>
</linearGradient>
<linearGradient id="paint2_linear" x1="237.547" y1="61.5625" x2="168.554" y2="61.5625" gradientUnits="userSpaceOnUse">
<stop stop-color="white"/>
<stop offset="1" stop-color="white" stop-opacity="0.53"/>
</linearGradient>
</defs>
</svg>
