<svg width="44" height="45" viewBox="0 0 44 45" fill="none" xmlns="http://www.w3.org/2000/svg">
<path fill-rule="evenodd" clip-rule="evenodd" d="M0.0837402 22.7547C0.0837402 20.1784 2.17229 18.0898 4.74864 18.0898H39.2521C41.8285 18.0898 43.917 20.1784 43.917 22.7547C43.917 25.3311 41.8285 27.4197 39.2521 27.4197H4.74864C2.17229 27.4197 0.0837402 25.3311 0.0837402 22.7547Z" fill="white"/>
<path fill-rule="evenodd" clip-rule="evenodd" d="M22.0006 0.83789C24.577 0.837891 26.6655 2.92644 26.6655 5.50279L26.6655 40.0063C26.6655 42.5826 24.577 44.6712 22.0006 44.6712C19.4243 44.6712 17.3357 42.5826 17.3357 40.0063L17.3357 5.50279C17.3357 2.92644 19.4243 0.83789 22.0006 0.83789Z" fill="white"/>
</svg>
