<svg width="16" height="22" viewBox="0 0 16 22" fill="none" xmlns="http://www.w3.org/2000/svg">
<path d="M7.12914 3.89314V7.0616H1.81635C0.841487 7.0616 0.0512085 7.85301 0.0512085 8.82583V19.4532C0.0512085 20.4276 0.840948 21.2175 1.81635 21.2175H14.2114C15.1863 21.2175 15.9766 20.4261 15.9766 19.4532V8.82583C15.9766 7.85147 15.1868 7.0616 14.2114 7.0616H8.89863V3.89027L9.89791 4.88955C10.2402 5.23188 10.7954 5.2317 11.1434 4.88378C11.4889 4.53827 11.4868 3.97604 11.1491 3.63834L8.63516 1.12437C8.46494 0.954154 8.24209 0.868618 8.01826 0.868408L8.01151 0.871049C7.78682 0.871529 7.5634 0.956457 7.39548 1.12437L4.88151 3.63834C4.53919 3.98066 4.53936 4.53586 4.88728 4.88378C5.2328 5.2293 5.79502 5.22726 6.13273 4.88955L7.12914 3.89314ZM8.89863 8.83108H14.2071V19.448H1.82069V8.83108H7.12914V12.3714C7.12914 12.8593 7.52185 13.2548 8.01389 13.2548C8.50251 13.2548 8.89863 12.8589 8.89863 12.3714V8.83108ZM11.5529 7.0616V8.83108H4.47492V7.0616H11.5529ZM8.89863 7.0616H7.12914V8.83108H8.89863V7.0616Z" fill="#388CFF"/>
</svg>
