<svg width="25" height="26" viewBox="0 0 25 26" fill="none" xmlns="http://www.w3.org/2000/svg">
<path fill-rule="evenodd" clip-rule="evenodd" d="M10.0707 2.82528C6.00483 2.82528 2.70883 6.12129 2.70883 10.1871C2.70883 14.2529 6.00483 17.5489 10.0707 17.5489C14.1365 17.5489 17.4325 14.2529 17.4325 10.1871C17.4325 6.12129 14.1365 2.82528 10.0707 2.82528ZM0.254883 10.1871C0.254883 4.76601 4.64956 0.371338 10.0707 0.371338C15.4918 0.371338 19.8864 4.76601 19.8864 10.1871C19.8864 15.6082 15.4918 20.0029 10.0707 20.0029C4.64956 20.0029 0.254883 15.6082 0.254883 10.1871Z" fill="#555555"/>
<path fill-rule="evenodd" clip-rule="evenodd" d="M15.3379 15.4544C15.8171 14.9752 16.594 14.9752 17.0731 15.4544L24.435 22.8162C24.9141 23.2954 24.9141 24.0722 24.435 24.5514C23.9558 25.0306 23.1789 25.0306 22.6997 24.5514L15.3379 17.1896C14.8588 16.7104 14.8588 15.9335 15.3379 15.4544Z" fill="#555555"/>
<path fill-rule="evenodd" clip-rule="evenodd" d="M0.158936 10.1872C0.158936 4.71304 4.59659 0.275391 10.0707 0.275391C15.5448 0.275391 19.9825 4.71304 19.9825 10.1872C19.9825 12.4472 19.226 14.5307 17.9525 16.198L24.5029 22.7484C25.0195 23.265 25.0195 24.1027 24.5029 24.6193C23.9862 25.136 23.1486 25.136 22.6319 24.6193L16.0816 18.069C14.4142 19.3425 12.3308 20.0989 10.0707 20.0989C4.59659 20.0989 0.158936 15.6613 0.158936 10.1872ZM16.2342 17.9501L22.7677 24.4836C23.2094 24.9252 23.9254 24.9252 24.3671 24.4836C24.8088 24.0419 24.8088 23.3258 24.3671 22.8841L17.8336 16.3506C17.363 16.9426 16.8261 17.4795 16.2342 17.9501ZM17.6969 16.214C17.2276 16.807 16.6906 17.3441 16.0975 17.8134L15.4058 17.1217C14.9642 16.6801 14.9642 15.964 15.4058 15.5223C15.8475 15.0806 16.5636 15.0806 17.0053 15.5223L17.6969 16.214ZM17.8155 16.061C19.0549 14.4294 19.7905 12.3942 19.7905 10.1872C19.7905 4.81908 15.4388 0.467386 10.0707 0.467386C4.70262 0.467386 0.350931 4.81908 0.350931 10.1872C0.350931 15.5552 4.70262 19.9069 10.0707 19.9069C12.2777 19.9069 14.3129 19.1714 15.9446 17.932L15.2701 17.2575C14.873 16.8604 14.7811 16.2736 14.9945 15.7887C13.6809 16.9442 11.9577 17.645 10.0707 17.645C5.95186 17.645 2.61288 14.306 2.61288 10.1872C2.61288 6.06832 5.95186 2.72933 10.0707 2.72933C14.1896 2.72933 17.5285 6.06832 17.5285 10.1872C17.5285 12.0741 16.8277 13.7974 15.6722 15.1109C16.1571 14.8975 16.7439 14.9894 17.141 15.3865L17.8155 16.061ZM10.0707 2.92133C6.0579 2.92133 2.80487 6.17436 2.80487 10.1872C2.80487 14.2 6.0579 17.453 10.0707 17.453C14.0835 17.453 17.3365 14.2 17.3365 10.1872C17.3365 6.17436 14.0835 2.92133 10.0707 2.92133Z" fill="#555555"/>
</svg>
