<svg width="16" height="16" viewBox="0 0 16 16" fill="none" xmlns="http://www.w3.org/2000/svg">
<path fill-rule="evenodd" clip-rule="evenodd" d="M6.89336 2.49153C4.42737 2.49153 2.4283 4.4906 2.4283 6.95659C2.4283 9.42257 4.42737 11.4217 6.89336 11.4217C9.35934 11.4217 11.3584 9.42257 11.3584 6.95659C11.3584 4.4906 9.35934 2.49153 6.89336 2.49153ZM0.939941 6.95659C0.939941 3.66861 3.60538 1.00317 6.89336 1.00317C10.1813 1.00317 12.8468 3.66861 12.8468 6.95659C12.8468 10.2446 10.1813 12.91 6.89336 12.91C3.60538 12.91 0.939941 10.2446 0.939941 6.95659Z" fill="#989898"/>
<path fill-rule="evenodd" clip-rule="evenodd" d="M10.088 10.1513C10.3786 9.86064 10.8498 9.86064 11.1405 10.1513L15.6055 14.6163C15.8961 14.9069 15.8961 15.3781 15.6055 15.6687C15.3149 15.9594 14.8437 15.9594 14.5531 15.6687L10.088 11.2037C9.79741 10.9131 9.79741 10.4419 10.088 10.1513Z" fill="#989898"/>
<path fill-rule="evenodd" clip-rule="evenodd" d="M0.881836 6.95646C0.881836 3.63633 3.57334 0.944824 6.89348 0.944824C10.2136 0.944824 12.9051 3.63633 12.9051 6.95646C12.9051 8.32724 12.4463 9.59086 11.6739 10.6021L15.6468 14.575C15.9602 14.8884 15.9602 15.3964 15.6468 15.7098C15.3334 16.0232 14.8254 16.0232 14.512 15.7098L10.5392 11.7369C9.52787 12.5093 8.26425 12.9681 6.89348 12.9681C3.57334 12.9681 0.881836 10.2766 0.881836 6.95646ZM10.6317 11.6648L14.5944 15.6275C14.8623 15.8953 15.2966 15.8953 15.5645 15.6275C15.8323 15.3596 15.8323 14.9252 15.5645 14.6574L11.6018 10.6947C11.3164 11.0537 10.9907 11.3793 10.6317 11.6648ZM11.5189 10.6118C11.2342 10.9715 10.9085 11.2972 10.5488 11.5819L10.1293 11.1624C9.86144 10.8945 9.86144 10.4602 10.1293 10.1923C10.3972 9.92443 10.8315 9.92443 11.0994 10.1923L11.5189 10.6118ZM11.5908 10.519C12.3425 9.52944 12.7887 8.29505 12.7887 6.95646C12.7887 3.70064 10.1493 1.06127 6.89348 1.06127C3.63765 1.06127 0.998284 3.70064 0.998284 6.95646C0.998284 10.2123 3.63765 12.8517 6.89348 12.8517C8.23207 12.8517 9.46646 12.4055 10.4561 11.6538L10.047 11.2447C9.80611 11.0039 9.75039 10.648 9.87982 10.3539C9.08314 11.0547 8.03794 11.4797 6.89348 11.4797C4.39533 11.4797 2.37019 9.45461 2.37019 6.95646C2.37019 4.45832 4.39533 2.43318 6.89348 2.43318C9.39162 2.43318 11.4168 4.45832 11.4168 6.95646C11.4168 8.10093 10.9917 9.14613 10.2909 9.94281C10.585 9.81338 10.9409 9.8691 11.1817 10.11L11.5908 10.519ZM6.89348 2.54963C4.45965 2.54963 2.48664 4.52263 2.48664 6.95646C2.48664 9.39029 4.45965 11.3633 6.89348 11.3633C9.3273 11.3633 11.3003 9.39029 11.3003 6.95646C11.3003 4.52263 9.3273 2.54963 6.89348 2.54963Z" fill="#989898"/>
</svg>
