<svg width="25" height="25" viewBox="0 0 25 25" fill="none" xmlns="http://www.w3.org/2000/svg">
<path fill-rule="evenodd" clip-rule="evenodd" d="M0.399414 3.40141C0.399414 1.94342 1.58136 0.761475 3.03935 0.761475H8.31923C9.77723 0.761475 10.9592 1.94342 10.9592 3.40141V8.68129C10.9592 10.1393 9.77723 11.3212 8.31923 11.3212H3.03935C1.58136 11.3212 0.399414 10.1393 0.399414 8.68129V3.40141ZM8.31923 3.40141H3.03935V8.68129H8.31923V3.40141Z" fill="#555555"/>
<path fill-rule="evenodd" clip-rule="evenodd" d="M0.399414 16.6011C0.399414 15.1431 1.58136 13.9612 3.03935 13.9612H8.31923C9.77723 13.9612 10.9592 15.1431 10.9592 16.6011V21.881C10.9592 23.339 9.77723 24.5209 8.31923 24.5209H3.03935C1.58136 24.5209 0.399414 23.339 0.399414 21.881V16.6011ZM8.31923 16.6011H3.03935V21.881H8.31923V16.6011Z" fill="#555555"/>
<path fill-rule="evenodd" clip-rule="evenodd" d="M13.5991 3.40141C13.5991 1.94342 14.7811 0.761475 16.2391 0.761475H21.5189C22.9769 0.761475 24.1589 1.94342 24.1589 3.40141V8.68129C24.1589 10.1393 22.9769 11.3212 21.5189 11.3212H16.2391C14.7811 11.3212 13.5991 10.1393 13.5991 8.68129V3.40141ZM21.5189 3.40141H16.2391V8.68129H21.5189V3.40141Z" fill="#555555"/>
<path fill-rule="evenodd" clip-rule="evenodd" d="M13.5991 16.6011C13.5991 15.1431 14.7811 13.9612 16.2391 13.9612H21.5189C22.9769 13.9612 24.1589 15.1431 24.1589 16.6011V21.881C24.1589 23.339 22.9769 24.5209 21.5189 24.5209H16.2391C14.7811 24.5209 13.5991 23.339 13.5991 21.881V16.6011ZM21.5189 16.6011H16.2391V21.881H21.5189V16.6011Z" fill="#555555"/>
</svg>
