<svg width="23" height="23" viewBox="0 0 23 23" fill="none" xmlns="http://www.w3.org/2000/svg">
<path fill-rule="evenodd" clip-rule="evenodd" d="M21.4752 1.23772C22.298 2.05647 22.298 3.38392 21.4752 4.20267L3.59726 21.9924C2.77445 22.8111 1.44041 22.8111 0.617597 21.9924C-0.205213 21.1736 -0.205213 19.8462 0.617597 19.0274L18.4956 1.23772C19.3184 0.418971 20.6524 0.418971 21.4752 1.23772Z" fill="#878787"/>
<path fill-rule="evenodd" clip-rule="evenodd" d="M0.617596 1.23772C1.44041 0.41897 2.77444 0.41897 3.59725 1.23772L21.4752 19.0274C22.298 19.8462 22.298 21.1736 21.4752 21.9924C20.6524 22.8111 19.3184 22.8111 18.4955 21.9924L0.617596 4.20267C-0.205214 3.38392 -0.205214 2.05647 0.617596 1.23772Z" fill="#878787"/>
</svg>
