<svg width="31" height="31" viewBox="0 0 31 31" fill="none" xmlns="http://www.w3.org/2000/svg">
<path fill-rule="evenodd" clip-rule="evenodd" d="M0.074707 15.2203C0.074707 14.1158 0.902674 13.2203 1.92402 13.2203H28.2254C29.2467 13.2203 30.0747 14.1158 30.0747 15.2203C30.0747 16.3249 29.2467 17.2203 28.2254 17.2203H1.92402C0.902674 17.2203 0.074707 16.3249 0.074707 15.2203Z" fill="white"/>
<path fill-rule="evenodd" clip-rule="evenodd" d="M15.0747 0.220337C16.1793 0.220337 17.0747 1.0483 17.0747 2.06965L17.0747 28.371C17.0747 29.3924 16.1793 30.2203 15.0747 30.2203C13.9701 30.2203 13.0747 29.3924 13.0747 28.371L13.0747 2.06965C13.0747 1.0483 13.9701 0.220337 15.0747 0.220337Z" fill="white"/>
</svg>
