<svg width="13" height="13" viewBox="0 0 13 13" fill="none" xmlns="http://www.w3.org/2000/svg">
<path fill-rule="evenodd" clip-rule="evenodd" d="M12.3828 0.478405C12.8392 0.932603 12.8392 1.669 12.3828 2.1232L2.46502 11.992C2.00857 12.4462 1.26852 12.4462 0.812066 11.992C0.355615 11.5378 0.355614 10.8014 0.812066 10.3472L10.7298 0.478405C11.1863 0.0242074 11.9263 0.0242074 12.3828 0.478405Z" fill="#878787"/>
<path fill-rule="evenodd" clip-rule="evenodd" d="M0.812065 0.478405C1.26852 0.0242068 2.00857 0.0242068 2.46502 0.478405L12.3828 10.3472C12.8392 10.8014 12.8392 11.5378 12.3828 11.992C11.9263 12.4462 11.1863 12.4462 10.7298 11.992L0.812065 2.1232C0.355614 1.669 0.355614 0.932603 0.812065 0.478405Z" fill="#878787"/>
</svg>
