<svg width="63" height="63" viewBox="0 0 63 63" fill="none" xmlns="http://www.w3.org/2000/svg">
<path d="M23.5321 33.9858H18.4696V37.4136H24.411V39.5317H15.8329V26.7349H24.3934V28.8706H18.4696V31.9204H23.5321V33.9858ZM33.4936 36.1743C33.4936 35.6763 33.3178 35.2954 32.9663 35.0317C32.6147 34.7622 31.9819 34.481 31.0678 34.188C30.1538 33.8892 29.4302 33.5962 28.8969 33.3091C27.4438 32.5239 26.7173 31.4663 26.7173 30.1362C26.7173 29.4448 26.9106 28.8296 27.2973 28.2905C27.6899 27.7456 28.2495 27.3208 28.9761 27.0161C29.7085 26.7114 30.5288 26.5591 31.437 26.5591C32.3511 26.5591 33.1655 26.7261 33.8803 27.0601C34.5952 27.3882 35.1489 27.854 35.5415 28.4575C35.9399 29.061 36.1391 29.7466 36.1391 30.5142H33.5024C33.5024 29.9282 33.3178 29.4741 32.9487 29.1519C32.5796 28.8237 32.061 28.6597 31.393 28.6597C30.7485 28.6597 30.2475 28.7974 29.8901 29.0728C29.5327 29.3423 29.354 29.6997 29.354 30.145C29.354 30.561 29.562 30.9097 29.978 31.1909C30.3999 31.4722 31.018 31.7358 31.8325 31.9819C33.3325 32.4331 34.4253 32.9927 35.1108 33.6606C35.7964 34.3286 36.1391 35.1606 36.1391 36.1567C36.1391 37.2642 35.7202 38.1343 34.8823 38.7671C34.0444 39.394 32.9165 39.7075 31.4985 39.7075C30.5141 39.7075 29.6177 39.5288 28.8091 39.1714C28.0005 38.8081 27.3823 38.313 26.9546 37.686C26.5327 37.0591 26.3218 36.3325 26.3218 35.5063H28.9673C28.9673 36.9185 29.811 37.6245 31.4985 37.6245C32.1255 37.6245 32.6147 37.4985 32.9663 37.2466C33.3178 36.9888 33.4936 36.6313 33.4936 36.1743ZM48.878 35.269C48.7784 36.646 48.2686 37.73 47.3487 38.521C46.4346 39.312 45.2276 39.7075 43.7276 39.7075C42.087 39.7075 40.795 39.1567 39.8516 38.0552C38.9141 36.9478 38.4454 35.4302 38.4454 33.5024V32.7202C38.4454 31.4897 38.6622 30.4058 39.0958 29.4683C39.5294 28.5308 40.1475 27.813 40.9503 27.3149C41.7589 26.811 42.6964 26.5591 43.7628 26.5591C45.2393 26.5591 46.4288 26.9546 47.3311 27.7456C48.2335 28.5366 48.755 29.647 48.8956 31.0767H46.2589C46.1944 30.2505 45.963 29.6528 45.5645 29.2837C45.1719 28.9087 44.5714 28.7212 43.7628 28.7212C42.8839 28.7212 42.2247 29.0376 41.7852 29.6704C41.3516 30.2974 41.129 31.2729 41.1173 32.5972V33.564C41.1173 34.9468 41.3253 35.9575 41.7413 36.5962C42.1632 37.2349 42.8253 37.5542 43.7276 37.5542C44.5421 37.5542 45.1485 37.3696 45.5469 37.0005C45.9512 36.6255 46.1827 36.0483 46.2413 35.269H48.878Z" fill="#C4C4C4"/>
<rect x="1.73486" y="1.55273" width="59.7861" height="59.7861" rx="3.25" stroke="#C4C4C4" stroke-width="1.5"/>
</svg>
