<svg width="27" height="27" viewBox="0 0 27 27" fill="none" xmlns="http://www.w3.org/2000/svg">
<path fill-rule="evenodd" clip-rule="evenodd" d="M13.1997 3.08147C7.3677 3.08147 2.63994 7.80923 2.63994 13.6412C2.63994 19.4732 7.3677 24.201 13.1997 24.201C19.0317 24.201 23.7595 19.4732 23.7595 13.6412C23.7595 7.80923 19.0317 3.08147 13.1997 3.08147ZM0 13.6412C0 6.35123 5.90971 0.441528 13.1997 0.441528C20.4897 0.441528 26.3994 6.35123 26.3994 13.6412C26.3994 20.9312 20.4897 26.8409 13.1997 26.8409C5.90971 26.8409 0 20.9312 0 13.6412Z" fill="#555555"/>
<path fill-rule="evenodd" clip-rule="evenodd" d="M25.0794 14.9612H1.31997V12.3213H25.0794V14.9612Z" fill="#555555"/>
<path fill-rule="evenodd" clip-rule="evenodd" d="M12.2658 24.5881C12.2661 24.5879 12.2663 24.5876 13.1997 25.521C14.1331 26.4543 14.1334 26.454 14.1337 26.4537L14.1363 26.4511L14.1415 26.4458L14.1575 26.4296C14.1706 26.4162 14.1886 26.3977 14.2112 26.3742C14.2564 26.3271 14.3198 26.26 14.3989 26.1739C14.5571 26.0016 14.7783 25.7525 15.0416 25.4344C15.5671 24.7994 16.2652 23.8831 16.9638 22.7478C18.3495 20.4961 19.7995 17.2819 19.7995 13.6412C19.7995 10.0005 18.3495 6.78635 16.9638 4.53463C16.2652 3.39939 15.5671 2.48307 15.0416 1.84803C14.7783 1.52995 14.5571 1.28088 14.3989 1.1086C14.3198 1.02242 14.2564 0.955321 14.2112 0.908284C14.1886 0.884762 14.1706 0.866242 14.1575 0.852848L14.1415 0.836609L14.1363 0.831398L14.1344 0.829522C14.1341 0.829197 14.1331 0.828137 13.1997 1.7615C12.2663 2.69486 12.2661 2.69459 12.2658 2.69435L12.2722 2.70084L12.3068 2.73653C12.339 2.77005 12.389 2.82284 12.4542 2.89392C12.5848 3.03615 12.776 3.25114 13.0078 3.53117C13.4722 4.09236 14.0941 4.9085 14.7155 5.91821C15.9697 7.95639 17.1596 10.6821 17.1596 13.6412C17.1596 16.6004 15.9697 19.3261 14.7155 21.3642C14.0941 22.374 13.4722 23.1901 13.0078 23.7513C12.776 24.0313 12.5848 24.2463 12.4542 24.3885C12.389 24.4596 12.339 24.5124 12.3068 24.5459L12.2722 24.5816L12.2658 24.5881Z" fill="#555555"/>
<path fill-rule="evenodd" clip-rule="evenodd" d="M14.1336 24.5881C14.1333 24.5879 14.1331 24.5876 13.1997 25.521C12.2663 26.4543 12.266 26.454 12.2657 26.4537L12.2631 26.4511L12.2579 26.4458L12.2419 26.4296C12.2288 26.4162 12.2108 26.3977 12.1882 26.3742C12.143 26.3271 12.0796 26.26 12.0005 26.1739C11.8423 26.0016 11.6211 25.7525 11.3578 25.4344C10.8323 24.7994 10.1342 23.8831 9.43559 22.7478C8.04992 20.4961 6.59985 17.2819 6.59985 13.6412C6.59985 10.0005 8.04992 6.78635 9.43559 4.53463C10.1342 3.39939 10.8323 2.48307 11.3578 1.84803C11.6211 1.52995 11.8423 1.28088 12.0005 1.1086C12.0796 1.02242 12.143 0.955321 12.1882 0.908284C12.2108 0.884762 12.2288 0.866242 12.2419 0.852848L12.2579 0.836609L12.2631 0.831398L12.265 0.829522C12.2653 0.829197 12.2663 0.828137 13.1997 1.7615C14.1331 2.69486 14.1333 2.69459 14.1336 2.69435L14.1272 2.70084L14.0926 2.73653C14.0604 2.77005 14.0104 2.82284 13.9452 2.89392C13.8146 3.03615 13.6234 3.25114 13.3916 3.53117C12.9272 4.09236 12.3053 4.9085 11.6839 5.91821C10.4297 7.95639 9.23979 10.6821 9.23979 13.6412C9.23979 16.6004 10.4297 19.3261 11.6839 21.3642C12.3053 22.374 12.9272 23.1901 13.3916 23.7513C13.6234 24.0313 13.8146 24.2463 13.9452 24.3885C14.0104 24.4596 14.0604 24.5124 14.0926 24.5459L14.1272 24.5816L14.1336 24.5881Z" fill="#555555"/>
</svg>
