<svg width="28" height="27" viewBox="0 0 28 27" fill="none" xmlns="http://www.w3.org/2000/svg">
<path d="M27.2845 8.00679C27.2628 6.89171 27.0523 5.78847 26.6619 4.74434C26.3166 3.85024 25.7892 3.03837 25.1135 2.36067C24.4378 1.68296 23.6286 1.15435 22.7377 0.808659C21.6977 0.417125 20.5991 0.205741 19.4886 0.183519C18.0548 0.115895 17.5999 0.0993652 13.9646 0.0993652C10.3293 0.0993652 9.87133 0.115895 8.44206 0.177508C7.33153 0.199293 6.23279 0.410692 5.19291 0.802648C4.29779 1.139 3.48703 1.66838 2.81777 2.35348C2.13747 3.02682 1.61099 3.84054 1.27476 4.73833C0.882297 5.78215 0.669243 6.88532 0.644687 8.00078C0.583326 9.4404 0.568359 9.89724 0.568359 13.5489C0.568359 17.2006 0.583326 17.6574 0.644687 19.0925C0.666805 20.2077 0.87785 21.3109 1.26878 22.355C1.61351 23.2487 2.14017 24.0603 2.81509 24.738C3.49002 25.4157 4.29835 25.9445 5.18842 26.2906C6.22843 26.6821 7.32709 26.8935 8.43757 26.9158C9.86534 26.9789 10.3218 26.9939 13.9571 26.9939C17.5924 26.9939 18.0488 26.9789 19.4766 26.9158C20.5872 26.8941 21.6859 26.6827 22.7258 26.2906C23.6161 25.945 24.4247 25.4163 25.0997 24.7386C25.7747 24.0608 26.3012 23.2489 26.6454 22.355C27.0352 21.3107 27.2457 20.2075 27.268 19.0925C27.3309 17.6589 27.3458 17.2006 27.3458 13.5504C27.3458 9.90024 27.3458 9.44191 27.2785 8.00829L27.2845 8.00679ZM24.8719 18.9873C24.8632 19.8398 24.7072 20.6844 24.411 21.4834C24.1877 22.0638 23.846 22.5909 23.4079 23.0308C22.9697 23.4708 22.4448 23.8139 21.8667 24.038C21.0708 24.335 20.2298 24.4916 19.3808 24.5009C17.968 24.564 17.5445 24.579 13.9706 24.579C10.3966 24.579 9.96711 24.564 8.56029 24.5009C7.71123 24.4923 6.8701 24.3356 6.07441 24.038C5.49283 23.8233 4.96695 23.4797 4.53589 23.0327C4.09238 22.5988 3.75085 22.0711 3.53615 21.4879C3.24044 20.6887 3.08449 19.8443 3.07519 18.9918C3.01233 17.5732 2.99737 17.148 2.99737 13.5594C2.99737 9.97087 3.01233 9.53958 3.07519 8.12701C3.08377 7.27447 3.23974 6.4299 3.53615 5.63095C3.74818 5.04687 4.09009 4.51905 4.53589 4.08764C4.96874 3.64179 5.49544 3.2988 6.07741 3.08381C6.87331 2.78695 7.7143 2.63036 8.56329 2.62096C9.97609 2.55785 10.3996 2.54282 13.9736 2.54282C17.5475 2.54282 17.977 2.55935 19.3838 2.62096C20.2329 2.62973 21.074 2.78633 21.8697 3.08381C22.4512 3.298 22.9771 3.64113 23.4082 4.08764C23.8517 4.52153 24.1933 5.04928 24.408 5.63246C24.7036 6.43161 24.8596 7.27604 24.8689 8.12851C24.9318 9.5471 24.9468 9.97237 24.9468 13.5609C24.9468 17.1495 24.9303 17.5702 24.8689 18.9888L24.8719 18.9873Z" fill="#388CFF"/>
<path d="M13.9655 6.64111C12.6039 6.64111 11.2729 7.04653 10.1407 7.8061C9.00857 8.56566 8.12618 9.64526 7.60511 10.9084C7.08404 12.1715 6.9477 13.5614 7.21334 14.9023C7.47898 16.2432 8.13466 17.4749 9.09747 18.4417C10.0603 19.4084 11.287 20.0668 12.6224 20.3335C13.9579 20.6002 15.3421 20.4633 16.6001 19.9401C17.858 19.4169 18.9332 18.5309 19.6897 17.3942C20.4462 16.2574 20.8499 14.9209 20.8499 13.5537C20.8499 11.7204 20.1246 9.96213 18.8335 8.66576C17.5425 7.3694 15.7914 6.64111 13.9655 6.64111ZM13.9655 18.0319C13.0828 18.0319 12.22 17.7691 11.486 17.2767C10.7521 16.7843 10.1801 16.0844 9.84231 15.2656C9.50452 14.4468 9.41614 13.5457 9.58834 12.6765C9.76054 11.8072 10.1856 11.0088 10.8097 10.3821C11.4339 9.75535 12.2291 9.32856 13.0948 9.15565C13.9605 8.98274 14.8579 9.07149 15.6734 9.41066C16.4889 9.74983 17.1859 10.3242 17.6763 11.0611C18.1667 11.798 18.4284 12.6644 18.4284 13.5507C18.428 14.7391 17.9577 15.8786 17.1208 16.7189C16.2839 17.5592 15.149 18.0315 13.9655 18.0319Z" fill="#388CFF"/>
<path d="M22.7258 6.36563C22.7258 6.68444 22.6315 6.99609 22.4551 7.26118C22.2786 7.52626 22.0278 7.73287 21.7343 7.85487C21.4409 7.97688 21.1179 8.0088 20.8064 7.9466C20.4948 7.8844 20.2087 7.73088 19.9841 7.50544C19.7595 7.28001 19.6065 6.99279 19.5445 6.6801C19.4826 6.36741 19.5144 6.0433 19.6359 5.74875C19.7575 5.45421 19.9633 5.20246 20.2275 5.02534C20.4916 4.84821 20.8021 4.75366 21.1197 4.75366C21.5457 4.75366 21.9542 4.9235 22.2554 5.2258C22.5566 5.5281 22.7258 5.93811 22.7258 6.36563Z" fill="#388CFF"/>
</svg>
