<svg width="25" height="25" viewBox="0 0 25 25" fill="none" xmlns="http://www.w3.org/2000/svg">
<path d="M24.5784 7.69263C24.5593 6.71171 24.3733 5.7412 24.0285 4.82269C23.7235 4.03617 23.2577 3.32198 22.6608 2.72581C22.064 2.12964 21.3493 1.66463 20.5624 1.36053C19.6438 1.0161 18.6733 0.83015 17.6924 0.810601C16.426 0.751114 16.0242 0.736572 12.8132 0.736572C9.60217 0.736572 9.19765 0.751114 7.9352 0.805313C6.95429 0.824478 5.98379 1.01044 5.06527 1.35524C4.27462 1.65113 3.55849 2.11681 2.96735 2.71948C2.36644 3.31182 1.90141 4.02763 1.60442 4.8174C1.25777 5.73564 1.06958 6.70608 1.04789 7.68734C0.993688 8.95376 0.980469 9.35563 0.980469 12.5679C0.980469 15.7803 0.993688 16.1821 1.04789 17.4446C1.06742 18.4256 1.25384 19.3961 1.59914 20.3145C1.90363 21.1007 2.36883 21.8147 2.96498 22.4108C3.56113 23.007 4.27512 23.4722 5.0613 23.7767C5.97993 24.1211 6.95036 24.307 7.93124 24.3266C9.19237 24.3821 9.59556 24.3954 12.8066 24.3954C16.0175 24.3954 16.4207 24.3821 17.6819 24.3266C18.6628 24.3075 19.6333 24.1216 20.5518 23.7767C21.3382 23.4726 22.0524 23.0076 22.6487 22.4114C23.2449 21.8152 23.7099 21.101 24.014 20.3145C24.3583 19.3959 24.5442 18.4254 24.5639 17.4446C24.6194 16.1835 24.6326 15.7803 24.6326 12.5693C24.6326 9.35827 24.6326 8.95508 24.5732 7.69395L24.5784 7.69263ZM22.4475 17.3521C22.4398 18.102 22.302 18.8449 22.0403 19.5478C21.8431 20.0584 21.5413 20.5221 21.1543 20.9091C20.7673 21.2961 20.3036 21.5979 19.793 21.7951C19.09 22.0563 18.3472 22.1941 17.5973 22.2023C16.3494 22.2578 15.9752 22.271 12.8185 22.271C9.66166 22.271 9.28226 22.2578 8.03963 22.2023C7.28967 22.1947 6.54671 22.0569 5.84389 21.7951C5.33018 21.6062 4.86568 21.3039 4.48493 20.9107C4.09319 20.529 3.79152 20.0648 3.60188 19.5518C3.34068 18.8488 3.20294 18.1059 3.19472 17.356C3.1392 16.1081 3.12598 15.734 3.12598 12.5772C3.12598 9.4204 3.1392 9.04101 3.19472 7.79838C3.2023 7.04842 3.34006 6.30546 3.60188 5.60264C3.78916 5.08883 4.09117 4.62451 4.48493 4.245C4.86727 3.85279 5.33249 3.55108 5.84653 3.36195C6.54954 3.1008 7.29238 2.96306 8.04228 2.95479C9.29019 2.89927 9.6643 2.88605 12.8211 2.88605C15.9779 2.88605 16.3573 2.90059 17.5999 2.95479C18.3499 2.9625 19.0928 3.10026 19.7957 3.36195C20.3093 3.55037 20.7738 3.85221 21.1546 4.245C21.5464 4.62669 21.848 5.09095 22.0377 5.60396C22.2988 6.30696 22.4366 7.0498 22.4448 7.7997C22.5004 9.04762 22.5136 9.42173 22.5136 12.5785C22.5136 15.7353 22.499 16.1055 22.4448 17.3534L22.4475 17.3521Z" fill="#388CFF"/>
<path d="M12.8124 6.49121C11.6097 6.49121 10.434 6.84785 9.434 7.51603C8.43399 8.18421 7.65459 9.13392 7.19434 10.2451C6.73409 11.3562 6.61366 12.5789 6.84829 13.7585C7.08292 14.9381 7.66208 16.0216 8.51252 16.872C9.36295 17.7224 10.4465 18.3016 11.626 18.5362C12.8056 18.7709 14.0283 18.6504 15.1395 18.1902C16.2506 17.7299 17.2003 16.9505 17.8685 15.9505C18.5367 14.9505 18.8933 13.7748 18.8933 12.5721C18.8933 10.9594 18.2527 9.41266 17.1123 8.27227C15.9719 7.13187 14.4251 6.49121 12.8124 6.49121ZM12.8124 16.5115C12.0327 16.5115 11.2706 16.2803 10.6223 15.8472C9.97404 15.414 9.46878 14.7984 9.17042 14.0781C8.87206 13.3577 8.79399 12.5651 8.9461 11.8004C9.0982 11.0358 9.47364 10.3334 10.0249 9.78206C10.5762 9.23076 11.2786 8.85532 12.0433 8.70322C12.808 8.55111 13.6006 8.62918 14.3209 8.92754C15.0412 9.2259 15.6569 9.73116 16.0901 10.3794C16.5232 11.0277 16.7544 11.7898 16.7544 12.5695C16.7541 13.6149 16.3386 14.6173 15.5994 15.3565C14.8602 16.0957 13.8578 16.5112 12.8124 16.5115Z" fill="#388CFF"/>
<path d="M20.5527 6.24926C20.5527 6.5298 20.4695 6.80404 20.3137 7.0373C20.1578 7.27056 19.9363 7.45237 19.6771 7.55973C19.4179 7.66708 19.1327 7.69517 18.8575 7.64044C18.5824 7.58571 18.3297 7.45062 18.1313 7.25224C17.9329 7.05387 17.7978 6.80113 17.7431 6.52598C17.6883 6.25083 17.7164 5.96563 17.8238 5.70644C17.9312 5.44726 18.113 5.22573 18.3462 5.06987C18.5795 4.91401 18.8537 4.83081 19.1343 4.83081C19.5105 4.83081 19.8713 4.98026 20.1373 5.24627C20.4033 5.51228 20.5527 5.87307 20.5527 6.24926Z" fill="#388CFF"/>
</svg>
