<svg width="27" height="27" viewBox="0 0 27 27" fill="none" xmlns="http://www.w3.org/2000/svg">
<path fill-rule="evenodd" clip-rule="evenodd" d="M6.38028 15.2153C4.92329 16.5995 4.92329 18.8436 6.38028 20.2278C7.83727 21.6119 10.1995 21.6119 11.6565 20.2278L14.3148 17.7024C14.8153 17.2269 15.6267 17.2269 16.1273 17.7024C16.6278 18.1779 16.6278 18.9488 16.1273 19.4243L13.469 21.9497C11.011 24.2848 7.02578 24.2848 4.56779 21.9497C2.10979 19.6145 2.10979 15.8286 4.56779 13.4935L7.22605 10.9681C7.72656 10.4926 8.53804 10.4926 9.03854 10.9681C9.53905 11.4436 9.53905 12.2145 9.03854 12.69L6.38028 15.2153Z" fill="#AEB2BE"/>
<path fill-rule="evenodd" clip-rule="evenodd" d="M9 17.7408C8.49949 17.2653 8.49949 16.4944 9 16.0189L16.0887 9.28463C16.5892 8.80914 17.4007 8.80914 17.9012 9.28463C18.4017 9.76011 18.4017 10.531 17.9012 11.0065L10.8125 17.7408C10.312 18.2163 9.5005 18.2163 9 17.7408Z" fill="#AEB2BE"/>
<path fill-rule="evenodd" clip-rule="evenodd" d="M15.2408 6.79727C16.6978 5.41312 19.06 5.41312 20.517 6.79727C21.974 8.18141 21.974 10.4256 20.517 11.8097L17.8587 14.3351C17.3582 14.8106 17.3582 15.5815 17.8587 16.057C18.3593 16.5324 19.1707 16.5324 19.6712 16.057L22.3295 13.5316C24.7875 11.1965 24.7875 7.4105 22.3295 5.07539C19.8715 2.74027 15.8863 2.74027 13.4283 5.07539L10.77 7.60076C10.2695 8.07624 10.2695 8.84715 10.77 9.32264C11.2705 9.79812 12.082 9.79812 12.5825 9.32264L15.2408 6.79727Z" fill="#AEB2BE"/>
</svg>
