<svg width="28" height="27" viewBox="0 0 28 27" fill="none" xmlns="http://www.w3.org/2000/svg">
<path fill-rule="evenodd" clip-rule="evenodd" d="M7.12149 15.2153C5.6645 16.5995 5.6645 18.8436 7.12149 20.2278C8.57848 21.6119 10.9407 21.6119 12.3977 20.2278L15.056 17.7024C15.5565 17.2269 16.368 17.2269 16.8685 17.7024C17.369 18.1779 17.369 18.9488 16.8685 19.4243L14.2102 21.9497C11.7522 24.2848 7.76699 24.2848 5.309 21.9497C2.851 19.6145 2.851 15.8286 5.309 13.4935L7.96726 10.9681C8.46777 10.4926 9.27925 10.4926 9.77976 10.9681C10.2803 11.4436 10.2803 12.2145 9.77976 12.69L7.12149 15.2153Z" fill="#388CFF"/>
<path fill-rule="evenodd" clip-rule="evenodd" d="M9.74023 17.7408C9.23972 17.2653 9.23972 16.4944 9.74023 16.0189L16.8289 9.28463C17.3294 8.80914 18.1409 8.80914 18.6414 9.28463C19.1419 9.76011 19.1419 10.531 18.6414 11.0065L11.5527 17.7408C11.0522 18.2163 10.2407 18.2163 9.74023 17.7408Z" fill="#388CFF"/>
<path fill-rule="evenodd" clip-rule="evenodd" d="M15.983 6.79727C17.44 5.41312 19.8022 5.41312 21.2592 6.79727C22.7162 8.18141 22.7162 10.4256 21.2592 11.8097L18.6009 14.3351C18.1004 14.8106 18.1004 15.5815 18.6009 16.057C19.1014 16.5324 19.9129 16.5324 20.4134 16.057L23.0717 13.5316C25.5297 11.1965 25.5297 7.4105 23.0717 5.07539C20.6137 2.74027 16.6285 2.74027 14.1705 5.07539L11.5122 7.60076C11.0117 8.07624 11.0117 8.84715 11.5122 9.32264C12.0127 9.79812 12.8242 9.79812 13.3247 9.32264L15.983 6.79727Z" fill="#388CFF"/>
</svg>
