<svg width="76" height="76" viewBox="0 0 76 76" fill="none" xmlns="http://www.w3.org/2000/svg">
<path d="M4.39273 75.5143C3.23803 75.5123 2.13726 75.0254 1.35898 74.1724C0.566362 73.3263 0.172505 72.1822 0.276384 71.0275L1.28489 59.938L47.8737 13.3656L62.4333 27.9211L15.8568 74.4893L4.76732 75.4978C4.63971 75.5102 4.51211 75.5143 4.39273 75.5143ZM65.3394 25.0108L50.784 10.4554L59.5148 1.7246C60.2869 0.951648 61.3346 0.517334 62.4271 0.517334C63.5196 0.517334 64.5673 0.951648 65.3394 1.7246L74.0702 10.4554C74.8431 11.2275 75.2775 12.2752 75.2775 13.3677C75.2775 14.4602 74.8431 15.5079 74.0702 16.28L65.3435 25.0067L65.3394 25.0108Z" fill="#5B5B5B"/>
</svg>
