<svg width="29" height="29" viewBox="0 0 29 29" fill="none" xmlns="http://www.w3.org/2000/svg">
<path d="M0.890259 14.4999C0.890259 6.84074 7.09928 0.631714 14.7585 0.631714C22.4177 0.631714 28.6267 6.84074 28.6267 14.4999C28.6267 22.1592 22.4177 28.3682 14.7585 28.3682C7.09928 28.3682 0.890259 22.1592 0.890259 14.4999Z" fill="url(#paint0_linear)"/>
<path fill-rule="evenodd" clip-rule="evenodd" d="M8.88574 14.4999C8.88574 13.8096 9.44539 13.2499 10.1357 13.2499H19.3812C20.0716 13.2499 20.6312 13.8096 20.6312 14.4999C20.6312 15.1903 20.0716 15.7499 19.3812 15.7499H10.1357C9.44539 15.7499 8.88574 15.1903 8.88574 14.4999Z" fill="white"/>
<path fill-rule="evenodd" clip-rule="evenodd" d="M14.7585 8.62717C15.4488 8.62717 16.0085 9.18681 16.0085 9.87717L16.0085 19.1227C16.0085 19.813 15.4488 20.3727 14.7585 20.3727C14.0681 20.3727 13.5085 19.813 13.5085 19.1227L13.5085 9.87717C13.5085 9.18681 14.0681 8.62717 14.7585 8.62717Z" fill="white"/>
<defs>
<linearGradient id="paint0_linear" x1="4.74256" y1="-0.909207" x2="23.2335" y2="28.3682" gradientUnits="userSpaceOnUse">
<stop stop-color="#00A3FF"/>
<stop offset="1" stop-color="#A639FB"/>
</linearGradient>
</defs>
</svg>
