<svg width="30" height="17" viewBox="0 0 30 17" fill="none" xmlns="http://www.w3.org/2000/svg">
<path d="M4.79938 0.36145H1.61518C0.705404 0.36145 0.523438 0.767055 0.523438 1.21431C0.523438 2.01305 1.60296 5.97468 5.54984 11.2142C8.18108 14.7924 11.8883 16.732 15.2618 16.732C17.2858 16.732 17.5362 16.3012 17.5362 15.5592V12.8548C17.5362 11.9932 17.7279 11.8212 18.3689 11.8212C18.8411 11.8212 19.6508 12.0449 21.5399 13.7701C23.6989 15.8148 24.0548 16.732 25.2692 16.732H28.4534C29.3632 16.732 29.8181 16.3012 29.5557 15.4511C29.2685 14.6037 28.2377 13.3744 26.87 11.9171C26.1278 11.0864 25.0146 10.1919 24.6772 9.74453C24.2049 9.16953 24.3399 8.91389 24.6772 8.40275L24.7339 8.32667C25.2137 7.68081 28.5856 3.10158 28.9615 1.46996C29.1638 0.830979 28.9615 0.36145 27.9986 0.36145H24.8144C24.0047 0.36145 23.6315 0.767055 23.429 1.21431C23.429 1.21431 21.8097 4.95231 19.5158 7.38039C18.7737 8.08324 18.4363 8.30687 18.0315 8.30687C17.8291 8.30687 17.5361 8.08324 17.5361 7.44431V1.46996C17.5361 0.703183 17.3012 0.36145 16.6264 0.36145H11.6227C11.1167 0.36145 10.8124 0.71733 10.8124 1.05461C10.8124 1.7815 11.9593 1.94913 12.0776 3.99387V8.43472C12.0776 9.40836 11.8919 9.58488 11.4871 9.58488C10.4076 9.58488 7.78182 5.83019 6.22448 1.53383C5.91928 0.69877 5.61317 0.36145 4.79938 0.36145Z" fill="#388CFF"/>
</svg>
