<svg width="282" height="175" viewBox="0 0 282 175" fill="none" xmlns="http://www.w3.org/2000/svg">
<rect x="50.5398" y="31.3542" width="81.5078" height="64.3519" fill="#EDF0F9"/>
<g filter="url(#filter0_d)">
<path d="M60.6868 57.5828C60.6868 52.9513 60.6868 50.6356 61.6166 48.8793C62.367 47.4621 63.5261 46.3031 64.9433 45.5527C66.6996 44.6228 69.0153 44.6228 73.6468 44.6228H104.788C109.42 44.6228 111.735 44.6228 113.492 45.5527C114.909 46.3031 116.068 47.4621 116.818 48.8793C117.748 50.6356 117.748 52.9513 117.748 57.5828V69.4745C117.748 74.106 117.748 76.4217 116.818 78.178C116.068 79.5952 114.909 80.7543 113.492 81.5047C111.735 82.4345 109.42 82.4345 104.788 82.4345H73.6468C69.0153 82.4345 66.6996 82.4345 64.9433 81.5047C63.5261 80.7543 62.367 79.5952 61.6166 78.178C60.6868 76.4217 60.6868 74.106 60.6868 69.4745V57.5828Z" fill="#FCFCFC"/>
</g>
<rect x="76.573" y="53.3292" width="24.6903" height="20.4039" fill="#FCFCFC" stroke="#8A3CFF" stroke-dasharray="3 3"/>
<g clip-path="url(#clip0)">
<g filter="url(#filter1_d)">
<path d="M116.981 87.1218C117.156 87.5427 116.988 89.1369 116.058 89.5064C115.128 89.876 113.94 89.5064 113.94 89.5064L111.784 85.1946L108.058 88.9206V72.0922L119.472 83.5064H115.219C115.428 83.9066 116.758 86.5871 116.981 87.1218Z" fill="white"/>
<path fill-rule="evenodd" clip-rule="evenodd" d="M109.058 74.5064V86.5064L112.058 83.5064L114.558 88.5064C114.558 88.5064 115.234 88.7222 115.558 88.5064C115.881 88.2906 116.203 87.856 116.058 87.5064C115.37 85.856 113.558 82.5064 113.558 82.5064H117.058L109.058 74.5064Z" fill="black"/>
</g>
</g>
<path d="M223.406 126.391V91.4431L266.381 67.7475V104.657L223.406 126.391Z" fill="white" stroke="#9A9A9A" stroke-width="0.7"/>
<path d="M227.363 104.476V103.537H227.713V103.281L227.957 103.156L227.797 102.845L228.666 102.4L228.825 102.712L229.694 102.268L229.534 101.956L230.403 101.512L230.562 101.823L231.43 101.379L231.271 101.067L232.139 100.623L232.299 100.935L233.167 100.49L233.008 100.179L233.876 99.7345L234.036 100.046L234.904 99.6018L234.745 99.2902L235.613 98.8459L235.773 99.1575L236.641 98.7132L236.482 98.4016L237.35 97.9573L237.434 98.122V98.1892H237.469L237.509 98.2689L237.665 98.1892H237.784V99.0971H237.434V100.005H237.784V100.913H237.434V101.821H237.784V102.729H237.434V103.637H237.784V104.545H237.434V105.453H237.784V106.361H237.434V106.606L237.183 106.742L237.35 107.05L236.482 107.521L236.315 107.213L235.446 107.684L235.613 107.991L234.745 108.462L234.578 108.154L233.71 108.625L233.876 108.933L233.008 109.404L232.841 109.096L231.973 109.566L232.139 109.874L231.271 110.345L231.104 110.037L230.236 110.508L230.403 110.816L229.534 111.286L229.367 110.979L228.499 111.449L228.666 111.757L227.797 112.228L227.713 112.072V111.993H227.67L227.63 111.92L227.495 111.993H227.363V111.054H227.713V110.114H227.363V109.174H227.713V108.235H227.363V107.295H227.713V106.355H227.363V105.416H227.713V104.476H227.363Z" stroke="#9A9A9A" stroke-width="0.7" stroke-dasharray="1 1"/>
<path d="M239.683 98.1167V97.177H240.033V96.9213L240.277 96.7967L240.117 96.4851L240.986 96.0408L241.145 96.3524L242.014 95.9081L241.854 95.5965L242.723 95.1522L242.882 95.4638L243.75 95.0195L243.591 94.7079L244.459 94.2636L244.619 94.5752L245.487 94.1309L245.328 93.8193L246.196 93.375L246.356 93.6866L247.224 93.2423L247.065 92.9307L247.933 92.4864L248.093 92.798L248.961 92.3537L248.802 92.0421L249.67 91.5978L249.754 91.7624V91.8296H249.789L249.83 91.9094L249.985 91.8296H250.104V92.7376H249.754V93.6455H250.104V94.5535H249.754V95.4614H250.104V96.3694H249.754V97.2773H250.104V98.1853H249.754V99.0932H250.104V100.001H249.754V100.247L249.503 100.383L249.67 100.691L248.802 101.161L248.635 100.853L247.766 101.324L247.933 101.632L247.065 102.103L246.898 101.795L246.03 102.266L246.196 102.573L245.328 103.044L245.161 102.736L244.293 103.207L244.459 103.515L243.591 103.985L243.424 103.678L242.556 104.148L242.723 104.456L241.854 104.927L241.687 104.619L240.819 105.09L240.986 105.397L240.117 105.868L240.033 105.713V105.634H239.99L239.951 105.56L239.815 105.634H239.683V104.694H240.033V103.754H239.683V102.815H240.033V101.875H239.683V100.936H240.033V99.9959H239.683V99.0563H240.033V98.1167H239.683Z" stroke="#9A9A9A" stroke-width="0.7" stroke-dasharray="1 1"/>
<path d="M252.003 91.6314V90.6918H252.353V90.4361L252.596 90.3114L252.437 89.9998L253.305 89.5555L253.465 89.8671L254.333 89.4228L254.174 89.1112L255.042 88.6669L255.202 88.9785L256.07 88.5342L255.911 88.2226L256.779 87.7783L256.938 88.0899L257.807 87.6456L257.648 87.334L258.516 86.8898L258.675 87.2013L259.544 86.757L259.384 86.4455L260.253 86.0012L260.412 86.3127L261.281 85.8684L261.121 85.5569L261.99 85.1126L262.074 85.2772V85.3444H262.108L262.149 85.4241L262.305 85.3444H262.424V86.2523H262.074V87.1603H262.424V88.0682H262.074V88.9762H262.424V89.8841H262.074V90.7921H262.424V91.7H262.074V92.608H262.424V93.5159H262.074V93.7615L261.823 93.8976L261.99 94.2053L261.121 94.676L260.954 94.3682L260.086 94.8389L260.253 95.1466L259.384 95.6173L259.218 95.3096L258.349 95.7803L258.516 96.088L257.648 96.5587L257.481 96.251L256.612 96.7217L256.779 97.0294L255.911 97.5001L255.744 97.1924L254.875 97.6631L255.042 97.9708L254.174 98.4415L254.007 98.1338L253.139 98.6045L253.305 98.9122L252.437 99.3829L252.353 99.2275V99.1484H252.31L252.27 99.0752L252.135 99.1484H252.003V98.2088H252.353V97.2692H252.003V96.3295H252.353V95.3899H252.003V94.4503H252.353V93.5107H252.003V92.571H252.353V91.6314H252.003Z" stroke="#9A9A9A" stroke-width="0.7" stroke-dasharray="1 1"/>
<path d="M223.584 37.4469V0.679148L266.381 23.0393V59.8071L223.584 37.4469Z" stroke="#9A9A9A" stroke-width="0.7"/>
<path d="M227.693 18.1251L227.778 17.9606L228.648 18.4101L228.488 18.7211L229.358 19.1706L229.518 18.8596L230.388 19.3091L230.228 19.6201L231.098 20.0696L231.258 19.7586L232.128 20.2082L231.968 20.5191L232.838 20.9686L232.998 20.6577L233.868 21.1072L233.708 21.4181L234.578 21.8676L234.738 21.5567L235.608 22.0062L235.448 22.3171L236.318 22.7667L236.478 22.4557L237.348 22.9052L237.188 23.2162L237.433 23.3431V23.5861H237.783V24.4983H237.433V25.4106H237.783V26.3228H237.433V27.2351H237.783V28.1473H237.433V29.0595H237.783V29.9718H237.433V30.884H237.783V31.7963H237.659L237.507 31.719L237.468 31.7963H237.433V31.8639L237.348 32.0309L236.478 31.588L236.637 31.2761L235.767 30.8332L235.608 31.1451L234.738 30.7022L234.897 30.3903L234.027 29.9474L233.868 30.2593L232.998 29.8164L233.157 29.5045L232.287 29.0616L232.128 29.3735L231.258 28.9306L231.417 28.6187L230.547 28.1758L230.388 28.4877L229.518 28.0448L229.677 27.7329L228.807 27.29L228.648 27.6019L227.778 27.159L227.937 26.8471L227.693 26.723V26.4775H227.343V25.5573H227.693V24.6372H227.343V23.717H227.693V22.7968H227.343V21.8766H227.693V20.9565H227.343V20.0363H227.693V19.1161H227.343V18.1959H227.471L227.618 18.2716L227.657 18.1959H227.693V18.1251Z" stroke="#9A9A9A" stroke-width="0.7" stroke-dasharray="1 1"/>
<path d="M240.112 24.6112L240.197 24.4467L241.067 24.8962L240.907 25.2072L241.777 25.6567L241.937 25.3457L242.807 25.7953L242.647 26.1062L243.517 26.5557L243.677 26.2448L244.547 26.6943L244.387 27.0052L245.257 27.4547L245.418 27.1438L246.288 27.5933L246.127 27.9042L246.997 28.3538L247.158 28.0428L248.028 28.4923L247.867 28.8033L248.737 29.2528L248.898 28.9418L249.768 29.3913L249.607 29.7023L249.853 29.8292V30.0722H250.203V30.9844H249.853V31.8967H250.203V32.8089H249.853V33.7212H250.203V34.6334H249.853V35.5457H250.203V36.4579H249.853V37.3701H250.203V38.2824H250.078L249.926 38.2051L249.887 38.2824H249.853V38.3501L249.768 38.517L248.898 38.0741L249.056 37.7622L248.186 37.3193L248.028 37.6312L247.158 37.1883L247.316 36.8764L246.446 36.4335L246.288 36.7454L245.418 36.3025L245.576 35.9906L244.706 35.5477L244.548 35.8596L243.677 35.4167L243.836 35.1048L242.966 34.6619L242.807 34.9738L241.937 34.5309L242.096 34.219L241.226 33.7761L241.067 34.0881L240.197 33.6452L240.356 33.3332L240.112 33.2091V32.9636H239.762V32.0434H240.112V31.1233H239.762V30.2031H240.112V29.2829H239.762V28.3627H240.112V27.4426H239.762V26.5224H240.112V25.6022H239.762V24.6821H239.89L240.037 24.7577L240.076 24.6821H240.112V24.6112Z" stroke="#9A9A9A" stroke-width="0.7" stroke-dasharray="1 1"/>
<path d="M252.532 30.9691L252.617 30.8046L253.487 31.2541L253.326 31.565L254.196 32.0145L254.357 31.7036L255.227 32.1531L255.066 32.464L255.936 32.9135L256.097 32.6026L256.967 33.0521L256.806 33.3631L257.676 33.8126L257.837 33.5016L258.707 33.9511L258.546 34.2621L259.416 34.7116L259.577 34.4006L260.447 34.8501L260.286 35.1611L261.156 35.6106L261.317 35.2997L262.187 35.7492L262.026 36.0601L262.272 36.187V36.43H262.622V37.3423H262.272V38.2545H262.622V39.1668H262.272V40.079H262.622V40.9912H262.272V41.9035H262.622V42.8157H262.272V43.728H262.622V44.6402H262.497L262.346 44.563L262.306 44.6402H262.272V44.7079L262.187 44.8749L261.317 44.432L261.476 44.1201L260.606 43.6772L260.447 43.9891L259.577 43.5462L259.736 43.2343L258.865 42.7914L258.707 43.1033L257.837 42.6604L257.995 42.3485L257.125 41.9056L256.967 42.2175L256.097 41.7746L256.255 41.4627L255.385 41.0198L255.227 41.3317L254.357 40.8888L254.515 40.5769L253.645 40.134L253.487 40.4459L252.617 40.003L252.775 39.6911L252.532 39.567V39.3214H252.182V38.4013H252.532V37.4811H252.182V36.5609H252.532V35.6408H252.182V34.7206H252.532V33.8004H252.182V32.8802H252.532V31.9601H252.182V31.0399H252.31L252.456 31.1155L252.495 31.0399H252.532V30.9691Z" stroke="#9A9A9A" stroke-width="0.7" stroke-dasharray="1 1"/>
<path d="M160.372 22.7337L203.814 0.100494V37.5498L160.372 60.2739V22.7337Z" fill="#EDF0F9"/>
<path d="M164.562 37.3063V36.3667H164.912V36.111L165.156 35.9863L164.996 35.6747L165.865 35.2304L166.024 35.542L166.893 35.0977L166.733 34.7862L167.602 34.3419L167.761 34.6534L168.63 34.2091L168.47 33.8976L169.339 33.4533L169.498 33.7648L170.366 33.3205L170.207 33.009L171.076 32.5647L171.235 32.8763L172.103 32.432L171.944 32.1204L172.812 31.6761L172.972 31.9877L173.84 31.5434L173.681 31.2318L174.549 30.7875L174.633 30.9521V31.0193H174.668L174.709 31.0991L174.865 31.0193H174.983V31.9272H174.633V32.8352H174.983V33.7432H174.633V34.6511H174.983V35.5591H174.633V36.467H174.983V37.375H174.633V38.2829H174.983V39.1909H174.633V39.4364L174.382 39.5725L174.549 39.8802L173.681 40.3509L173.514 40.0432L172.646 40.5139L172.812 40.8216L171.944 41.2923L171.777 40.9845L170.909 41.4552L171.076 41.7629L170.207 42.2336L170.04 41.9259L169.172 42.3966L169.339 42.7043L168.47 43.175L168.303 42.8673L167.435 43.338L167.602 43.6457L166.733 44.1164L166.567 43.8087L165.698 44.2794L165.865 44.5871L164.996 45.0578L164.912 44.9024V44.8233H164.869L164.83 44.7501L164.695 44.8233H164.562V43.8837H164.912V42.9441H164.562V42.0044H164.912V41.0648H164.562V40.1252H164.912V39.1856H164.562V38.246H164.912V37.3063H164.562Z" fill="white" stroke="#832FFF" stroke-width="0.7" stroke-dasharray="1 1"/>
<path d="M176.883 30.9465V30.0069H177.233V29.7512L177.477 29.6265L177.317 29.3149L178.186 28.8706L178.345 29.1822L179.214 28.7379L179.054 28.4263L179.923 27.982L180.082 28.2936L180.95 27.8493L180.791 27.5377L181.659 27.0934L181.819 27.405L182.687 26.9607L182.528 26.6492L183.396 26.2049L183.556 26.5164L184.424 26.0721L184.265 25.7606L185.133 25.3163L185.293 25.6278L186.161 25.1835L186.002 24.872L186.87 24.4277L186.954 24.5923V24.6595H186.989L187.029 24.7393L187.185 24.6595H187.304V25.5674H186.954V26.4754H187.304V27.3833H186.954V28.2913H187.304V29.1992H186.954V30.1072H187.304V31.0151H186.954V31.9231H187.304V32.831H186.954V33.0766L186.703 33.2127L186.87 33.5204L186.002 33.9911L185.835 33.6833L184.966 34.154L185.133 34.4618L184.265 34.9324L184.098 34.6247L183.23 35.0954L183.396 35.4031L182.528 35.8738L182.361 35.5661L181.493 36.0368L181.659 36.3445L180.791 36.8152L180.624 36.5075L179.756 36.9782L179.923 37.2859L179.054 37.7566L178.887 37.4489L178.019 37.9196L178.186 38.2273L177.317 38.698L177.233 38.5426V38.4635H177.19L177.15 38.3903L177.015 38.4635H176.883V37.5239H177.233V36.5843H176.883V35.6446H177.233V34.705H176.883V33.7654H177.233V32.8258H176.883V31.8861H177.233V30.9465H176.883Z" stroke="#9A9A9A" stroke-width="0.7" stroke-dasharray="1 1"/>
<path d="M189.203 24.4619V23.5223H189.553V23.2666L189.796 23.1419L189.637 22.8303L190.505 22.386L190.665 22.6976L191.533 22.2533L191.374 21.9417L192.242 21.4974L192.402 21.809L193.27 21.3647L193.111 21.0531L193.979 20.6089L194.138 20.9204L195.007 20.4761L194.847 20.1646L195.716 19.7203L195.875 20.0318L196.744 19.5875L196.584 19.276L197.453 18.8317L197.612 19.1433L198.481 18.699L198.321 18.3874L199.19 17.9431L199.274 18.1077V18.1749H199.308L199.349 18.2547L199.505 18.1749H199.624V19.0828H199.274V19.9908H199.624V20.8987H199.274V21.8067H199.624V22.7146H199.274V23.6226H199.624V24.5305H199.274V25.4385H199.624V26.3464H199.274V26.592L199.023 26.7281L199.19 27.0358L198.321 27.5065L198.154 27.1988L197.286 27.6694L197.453 27.9772L196.584 28.4478L196.418 28.1401L195.549 28.6108L195.716 28.9185L194.847 29.3892L194.681 29.0815L193.812 29.5522L193.979 29.8599L193.111 30.3306L192.944 30.0229L192.075 30.4936L192.242 30.8013L191.374 31.272L191.207 30.9643L190.339 31.435L190.505 31.7427L189.637 32.2134L189.553 32.058V31.9789H189.51L189.47 31.9057L189.335 31.9789H189.203V31.0393H189.553V30.0997H189.203V29.16H189.553V28.2204H189.203V27.2808H189.553V26.3412H189.203V25.4015H189.553V24.4619H189.203Z" stroke="#9A9A9A" stroke-width="0.7" stroke-dasharray="1 1"/>
<path d="M160.738 104.498V67.752L203.179 91.5214V126.07L160.738 104.498Z" fill="white" stroke="#9A9A9A" stroke-width="0.7"/>
<path d="M164.669 84.9612L164.754 84.7967L165.624 85.2462L165.464 85.5571L166.334 86.0066L166.494 85.6957L167.364 86.1452L167.204 86.4561L168.074 86.9057L168.234 86.5947L169.104 87.0442L168.944 87.3552L169.814 87.8047L169.974 87.4937L170.844 87.9432L170.684 88.2542L171.554 88.7037L171.714 88.3927L172.584 88.8423L172.424 89.1532L173.294 89.6027L173.454 89.2918L174.324 89.7413L174.164 90.0522L174.409 90.1792V90.4222H174.759V91.3344H174.409V92.2466H174.759V93.1589H174.409V94.0711H174.759V94.9834H174.409V95.8956H174.759V96.8078H174.409V97.7201H174.759V98.6323H174.635L174.483 98.5551L174.444 98.6323H174.409V98.7L174.324 98.867L173.454 98.4241L173.613 98.1122L172.743 97.6693L172.584 97.9812L171.714 97.5383L171.873 97.2264L171.003 96.7835L170.844 97.0954L169.974 96.6525L170.133 96.3406L169.263 95.8977L169.104 96.2096L168.234 95.7667L168.393 95.4548L167.523 95.0119L167.364 95.3238L166.494 94.8809L166.653 94.569L165.783 94.1261L165.624 94.438L164.754 93.9951L164.913 93.6832L164.669 93.5591V93.3136H164.319V92.3934H164.669V91.4732H164.319V90.553H164.669V89.6329H164.319V88.7127H164.669V87.7925H164.319V86.8723H164.669V85.9522H164.319V85.032H164.447L164.594 85.1076L164.633 85.032H164.669V84.9612Z" stroke="#9A9A9A" stroke-width="0.7" stroke-dasharray="1 1"/>
<path d="M177.089 91.4331L177.174 91.2686L178.044 91.7181L177.883 92.0291L178.753 92.4786L178.914 92.1676L179.784 92.6171L179.623 92.9281L180.493 93.3776L180.654 93.0667L181.524 93.5162L181.363 93.8271L182.233 94.2766L182.394 93.9657L183.264 94.4152L183.103 94.7261L183.973 95.1756L184.134 94.8647L185.004 95.3142L184.843 95.6252L185.713 96.0747L185.874 95.7637L186.744 96.2132L186.583 96.5242L186.829 96.6511V96.8941H187.179V97.8063H186.829V98.7186H187.179V99.6308H186.829V100.543H187.179V101.455H186.829V102.368H187.179V103.28H186.829V104.192H187.179V105.104H187.054L186.902 105.027L186.863 105.104H186.829V105.172L186.744 105.339L185.874 104.896L186.032 104.584L185.162 104.141L185.004 104.453L184.134 104.01L184.292 103.698L183.422 103.255L183.264 103.567L182.394 103.124L182.552 102.813L181.682 102.37L181.524 102.682L180.654 102.239L180.812 101.927L179.942 101.484L179.784 101.796L178.914 101.353L179.072 101.041L178.202 100.598L178.044 100.91L177.174 100.467L177.332 100.155L177.089 100.031V99.7855H176.739V98.8653H177.089V97.9452H176.739V97.025H177.089V96.1048H176.739V95.1846H177.089V94.2645H176.739V93.3443H177.089V92.4241H176.739V91.504H176.867L177.013 91.5796L177.052 91.504H177.089V91.4331Z" stroke="#9A9A9A" stroke-width="0.7" stroke-dasharray="1 1"/>
<path d="M189.507 97.8057L189.592 97.6412L190.462 98.0907L190.302 98.4016L191.172 98.8512L191.332 98.5402L192.203 98.9897L192.042 99.3007L192.912 99.7502L193.073 99.4392L193.943 99.8887L193.782 100.2L194.652 100.649L194.813 100.338L195.683 100.788L195.522 101.099L196.392 101.548L196.553 101.237L197.423 101.687L197.262 101.998L198.132 102.447L198.293 102.136L199.163 102.586L199.002 102.897L199.248 103.024V103.267H199.598V104.179H199.248V105.091H199.598V106.003H199.248V106.916H199.598V107.828H199.248V108.74H199.598V109.652H199.248V110.565H199.598V111.477H199.473L199.321 111.4L199.282 111.477H199.248V111.545L199.163 111.712L198.293 111.269L198.451 110.957L197.581 110.514L197.423 110.826L196.553 110.383L196.711 110.071L195.841 109.628L195.683 109.94L194.813 109.497L194.971 109.185L194.101 108.742L193.943 109.054L193.073 108.611L193.231 108.299L192.361 107.856L192.203 108.168L191.332 107.725L191.491 107.414L190.621 106.971L190.462 107.283L189.592 106.84L189.751 106.528L189.507 106.404V106.158H189.157V105.238H189.507V104.318H189.157V103.398H189.507V102.477H189.157V101.557H189.507V100.637H189.157V99.7169H189.507V98.7967H189.157V97.8765H189.285L189.432 97.9521L189.471 97.8765H189.507V97.8057Z" stroke="#9A9A9A" stroke-width="0.7" stroke-dasharray="1 1"/>
<path d="M207.704 107.302L213.391 104.391L219.043 107.302M207.704 107.302L213.391 110.244M207.704 107.302V113.125L213.391 116.021M213.391 110.244L219.043 107.302M213.391 110.244V116.021M219.043 107.302V113.125L213.391 116.021" stroke="#9A9A9A" stroke-opacity="0.25" stroke-width="0.7"/>
<path d="M213.034 104.39V110.213H213.734V104.39H213.034Z" fill="#9A9A9A" fill-opacity="0.25"/>
<path d="M213.138 109.94L207.513 112.852L207.892 113.44L213.517 110.529L213.138 109.94Z" fill="#9A9A9A" fill-opacity="0.25"/>
<path d="M213.195 110.529L218.819 113.44L219.198 112.852L213.574 109.94L213.195 110.529Z" fill="#9A9A9A" fill-opacity="0.25"/>
<path d="M269.76 60.782L275.447 57.8707L281.099 60.782M269.76 60.782L275.447 63.7241M269.76 60.782V66.6046L275.447 69.5005M275.447 63.7241L281.099 60.782M275.447 63.7241V69.5005M281.099 60.782V66.6046L275.447 69.5005" stroke="#9A9A9A" stroke-opacity="0.25" stroke-width="0.7"/>
<path d="M275.09 57.8702V63.6928H275.79V57.8702H275.09Z" fill="#9A9A9A" fill-opacity="0.25"/>
<path d="M275.194 63.4208L269.569 66.3321L269.948 66.9206L275.573 64.0093L275.194 63.4208Z" fill="#9A9A9A" fill-opacity="0.25"/>
<path d="M275.25 64.0093L280.875 66.9206L281.254 66.3321L275.629 63.4208L275.25 64.0093Z" fill="#9A9A9A" fill-opacity="0.25"/>
<path d="M207.704 16.3664L213.39 13.4551L219.043 16.3664M207.704 16.3664L213.39 19.3085M207.704 16.3664V22.189L213.39 25.0849M213.39 19.3085L219.043 16.3664M213.39 19.3085V25.0849M219.043 16.3664V22.189L213.39 25.0849" stroke="#9A9A9A" stroke-opacity="0.25" stroke-width="0.7"/>
<path d="M213.034 13.455V19.2776H213.734V13.455H213.034Z" fill="#9A9A9A" fill-opacity="0.25"/>
<path d="M213.138 19.0053L207.513 21.9166L207.892 22.5052L213.517 19.5939L213.138 19.0053Z" fill="#9A9A9A" fill-opacity="0.25"/>
<path d="M213.195 19.5939L218.819 22.5052L219.198 21.9166L213.574 19.0053L213.195 19.5939Z" fill="#9A9A9A" fill-opacity="0.25"/>
<path d="M207.703 65.3937L213.39 62.4824L219.042 65.3937M207.703 65.3937L213.39 68.3358M207.703 65.3937V71.2163L213.39 74.1122M213.39 68.3358L219.042 65.3937M213.39 68.3358V74.1122M219.042 65.3937V71.2163L213.39 74.1122" stroke="#9A9A9A" stroke-opacity="0.25" stroke-width="0.7"/>
<path d="M213.035 62.4824V68.305H213.735V62.4824H213.035Z" fill="#9A9A9A" fill-opacity="0.25"/>
<path d="M213.138 68.033L207.514 70.9443L207.893 71.5328L213.517 68.6215L213.138 68.033Z" fill="#9A9A9A" fill-opacity="0.25"/>
<path d="M213.195 68.6215L218.819 71.5328L219.198 70.9443L213.574 68.033L213.195 68.6215Z" fill="#9A9A9A" fill-opacity="0.25"/>
<path d="M145.647 60.7816L151.334 57.8703L156.986 60.7816M145.647 60.7816L151.334 63.7237M145.647 60.7816V66.6042L151.334 69.5001M151.334 63.7237L156.986 60.7816M151.334 63.7237V69.5001M156.986 60.7816V66.6042L151.334 69.5001" stroke="#9A9A9A" stroke-opacity="0.25" stroke-width="0.7"/>
<path d="M150.978 57.8704V63.693H151.678V57.8704H150.978Z" fill="#9A9A9A" fill-opacity="0.25"/>
<path d="M151.082 63.421L145.457 66.3323L145.836 66.9208L151.46 64.0095L151.082 63.421Z" fill="#9A9A9A" fill-opacity="0.25"/>
<path d="M151.139 64.0095L156.763 66.9208L157.142 66.3323L151.518 63.421L151.139 64.0095Z" fill="#9A9A9A" fill-opacity="0.25"/>
<defs>
<filter id="filter0_d" x="0.686768" y="16.6228" width="177.061" height="157.812" filterUnits="userSpaceOnUse" color-interpolation-filters="sRGB">
<feFlood flood-opacity="0" result="BackgroundImageFix"/>
<feColorMatrix in="SourceAlpha" type="matrix" values="0 0 0 0 0 0 0 0 0 0 0 0 0 0 0 0 0 0 127 0"/>
<feOffset dy="32"/>
<feGaussianBlur stdDeviation="30"/>
<feColorMatrix type="matrix" values="0 0 0 0 0.27451 0 0 0 0 0.262745 0 0 0 0 0.309804 0 0 0 0.08 0"/>
<feBlend mode="normal" in2="BackgroundImageFix" result="effect1_dropShadow"/>
<feBlend mode="normal" in="SourceGraphic" in2="effect1_dropShadow" result="shape"/>
</filter>
<filter id="filter1_d" x="106.258" y="71.2922" width="15.0142" height="21.1785" filterUnits="userSpaceOnUse" color-interpolation-filters="sRGB">
<feFlood flood-opacity="0" result="BackgroundImageFix"/>
<feColorMatrix in="SourceAlpha" type="matrix" values="0 0 0 0 0 0 0 0 0 0 0 0 0 0 0 0 0 0 127 0"/>
<feOffset dy="1"/>
<feGaussianBlur stdDeviation="0.9"/>
<feColorMatrix type="matrix" values="0 0 0 0 0 0 0 0 0 0 0 0 0 0 0 0 0 0 0.65 0"/>
<feBlend mode="normal" in2="BackgroundImageFix" result="effect1_dropShadow"/>
<feBlend mode="normal" in="SourceGraphic" in2="effect1_dropShadow" result="shape"/>
</filter>
<clipPath id="clip0">
<rect width="17.8328" height="17.8328" fill="white" transform="translate(104.058 72.0922)"/>
</clipPath>
</defs>
</svg>
