<svg width="47" height="47" viewBox="0 0 47 47" fill="none" xmlns="http://www.w3.org/2000/svg">
<path d="M16.5203 24.229H12.3015V27.0854H17.2527V28.8506H10.1043V18.1865H17.2381V19.9663H12.3015V22.5078H16.5203V24.229ZM24.8216 26.0527C24.8216 25.6377 24.6751 25.3203 24.3821 25.1006C24.0891 24.876 23.5618 24.6416 22.8001 24.3975C22.0384 24.1484 21.4353 23.9043 20.991 23.665C19.7801 23.0107 19.1746 22.1294 19.1746 21.021C19.1746 20.4448 19.3357 19.9321 19.658 19.4829C19.9851 19.0288 20.4514 18.6748 21.0569 18.4209C21.6673 18.167 22.3509 18.04 23.1077 18.04C23.8694 18.04 24.5481 18.1792 25.1438 18.4575C25.7395 18.731 26.201 19.1191 26.5281 19.6221C26.8601 20.125 27.0262 20.6963 27.0262 21.3359H24.8289C24.8289 20.8477 24.6751 20.4692 24.3675 20.2007C24.0598 19.9272 23.6277 19.7905 23.0711 19.7905C22.534 19.7905 22.1165 19.9053 21.8186 20.1348C21.5208 20.3594 21.3719 20.6572 21.3719 21.0283C21.3719 21.375 21.5452 21.6655 21.8919 21.8999C22.2434 22.1343 22.7586 22.354 23.4373 22.5591C24.6873 22.9351 25.5979 23.4014 26.1692 23.958C26.7405 24.5146 27.0262 25.208 27.0262 26.0381C27.0262 26.9609 26.677 27.686 25.9788 28.2134C25.2806 28.7358 24.3406 28.9971 23.159 28.9971C22.3387 28.9971 21.5916 28.8481 20.9178 28.5503C20.2439 28.2476 19.7288 27.835 19.3723 27.3125C19.0208 26.79 18.845 26.1846 18.845 25.4961H21.0496C21.0496 26.6729 21.7527 27.2612 23.159 27.2612C23.6814 27.2612 24.0891 27.1562 24.3821 26.9463C24.6751 26.7314 24.8216 26.4336 24.8216 26.0527ZM37.6419 25.2983C37.5589 26.4458 37.1341 27.3491 36.3675 28.0083C35.6057 28.6675 34.5999 28.9971 33.3499 28.9971C31.9827 28.9971 30.906 28.5381 30.1199 27.6201C29.3387 26.6973 28.948 25.4326 28.948 23.8262V23.1743C28.948 22.1489 29.1287 21.2456 29.49 20.4644C29.8514 19.6831 30.3665 19.085 31.0354 18.6699C31.7093 18.25 32.4905 18.04 33.3792 18.04C34.6097 18.04 35.6009 18.3696 36.3528 19.0288C37.1048 19.688 37.5393 20.6133 37.6565 21.8047H35.4593C35.4056 21.1162 35.2127 20.6182 34.8806 20.3105C34.5535 19.998 34.053 19.8418 33.3792 19.8418C32.6468 19.8418 32.0974 20.1055 31.7312 20.6328C31.3699 21.1553 31.1844 21.9683 31.1746 23.0718V23.8774C31.1746 25.0298 31.3479 25.8721 31.6946 26.4043C32.0462 26.9365 32.5979 27.2026 33.3499 27.2026C34.0286 27.2026 34.534 27.0488 34.866 26.7412C35.2029 26.4287 35.3958 25.9478 35.4446 25.2983H37.6419Z" fill="#555555"/>
<rect x="1.28613" y="1.3291" width="44.0427" height="44.0427" rx="3.25" stroke="#555555" stroke-width="1.5"/>
</svg>
