<svg width="95" height="63" viewBox="0 0 95 63" fill="none" xmlns="http://www.w3.org/2000/svg">
<path d="M59.8362 29.9046H34.7945C33.6752 29.9046 32.7649 28.9943 32.7649 27.875V2.83239C32.7649 1.71301 33.6752 0.802734 34.7945 0.802734H59.8362C60.9556 0.802734 61.8668 1.71301 61.8668 2.83239V27.875C61.8668 28.9943 60.9556 29.9046 59.8362 29.9046ZM34.7945 2.15644C34.4214 2.15644 34.1186 2.45926 34.1186 2.83239V27.875C34.1186 28.2481 34.4214 28.5518 34.7945 28.5518H59.8362C60.2084 28.5518 60.5131 28.2481 60.5131 27.875V2.83239C60.5131 2.45836 60.2084 2.15644 59.8362 2.15644H34.7945Z" fill="#EEEEEE"/>
<path d="M40.3212 19.5276C40.1481 19.5276 39.9751 19.4618 39.8426 19.3293C39.5785 19.0653 39.5785 18.6363 39.8426 18.3722L46.8364 11.3784C47.0897 11.1242 47.5394 11.1242 47.7936 11.3784L54.7874 18.3722C55.0523 18.6363 55.0523 19.0653 54.7874 19.3293C54.5233 19.5934 54.0943 19.5934 53.8302 19.3293L47.315 12.8141L40.7997 19.3293C40.6681 19.4618 40.4951 19.5276 40.3212 19.5276Z" fill="#EEEEEE"/>
<path d="M59.8362 62.1636H34.7945C33.6752 62.1636 32.7649 61.2524 32.7649 60.133V35.0913C32.7649 33.972 33.6752 33.0608 34.7945 33.0608H59.8362C60.9556 33.0608 61.8668 33.972 61.8668 35.0913V60.133C61.8668 61.2524 60.9556 62.1636 59.8362 62.1636ZM34.7945 34.4145C34.4214 34.4145 34.1186 34.7182 34.1186 35.0913V60.133C34.1186 60.5061 34.4214 60.809 34.7945 60.809H59.8362C60.2084 60.809 60.5131 60.5061 60.5131 60.133V35.0913C60.5131 34.7182 60.2084 34.4145 59.8362 34.4145H34.7945Z" fill="#EEEEEE"/>
<path d="M47.3157 51.7856C47.1364 51.7856 46.9642 51.7144 46.8371 51.5874L39.8433 44.5926C39.5792 44.3286 39.5792 43.8996 39.8433 43.6355C40.1074 43.3705 40.5355 43.3705 40.8005 43.6355L47.3157 50.1508L53.831 43.6355C54.095 43.3705 54.524 43.3705 54.7881 43.6355C55.0531 43.8996 55.0531 44.3286 54.7881 44.5926L47.7943 51.5874C47.6672 51.7144 47.4951 51.7856 47.3157 51.7856Z" fill="#EEEEEE"/>
<path d="M92.0943 62.1636H67.0526C65.9332 62.1636 65.0229 61.2524 65.0229 60.133V35.0913C65.0229 33.972 65.9332 33.0608 67.0526 33.0608H92.0943C93.2136 33.0608 94.1248 33.972 94.1248 35.0913V60.133C94.1248 61.2524 93.2136 62.1636 92.0943 62.1636ZM67.0526 34.4145C66.6804 34.4145 66.3757 34.7182 66.3757 35.0913V60.133C66.3757 60.5061 66.6804 60.809 67.0526 60.809H92.0943C92.4674 60.809 92.7711 60.5061 92.7711 60.133V35.0913C92.7711 34.7182 92.4674 34.4145 92.0943 34.4145H67.0526Z" fill="#EEEEEE"/>
<path d="M76.0768 55.2825C75.9046 55.2825 75.7307 55.2167 75.5991 55.0842C75.3341 54.8201 75.3341 54.3911 75.5991 54.127L82.1144 47.6118L75.5991 41.0965C75.3341 40.8316 75.3341 40.4035 75.5991 40.1394C75.8632 39.8744 76.2922 39.8744 76.5563 40.1394L83.5501 47.1332C83.8142 47.3982 83.8142 47.8263 83.5501 48.0904L76.5563 55.0842C76.4229 55.2167 76.2498 55.2825 76.0768 55.2825Z" fill="#EEEEEE"/>
<path d="M27.5781 62.1636H2.53641C1.41704 62.1636 0.505859 61.2524 0.505859 60.133V35.0913C0.505859 33.972 1.41704 33.0608 2.53641 33.0608H27.5781C28.6975 33.0608 29.6086 33.972 29.6086 35.0913V60.133C29.6086 61.2524 28.6975 62.1636 27.5781 62.1636ZM2.53641 34.4145C2.16329 34.4145 1.85956 34.7182 1.85956 35.0913V60.133C1.85956 60.5061 2.16329 60.809 2.53641 60.809H27.5781C27.9512 60.809 28.2549 60.5061 28.2549 60.133V35.0913C28.2549 34.7182 27.9512 34.4145 27.5781 34.4145H2.53641Z" fill="#EEEEEE"/>
<path d="M18.5535 55.2825C18.3814 55.2825 18.2074 55.2167 18.0749 55.0842L11.0811 48.0904C10.817 47.8254 10.817 47.3973 11.0811 47.1332L18.0749 40.1394C18.339 39.8744 18.768 39.8744 19.0321 40.1394C19.2961 40.4035 19.2961 40.8316 19.0321 41.0965L12.5159 47.6118L19.0321 54.127C19.2961 54.3911 19.2961 54.8201 19.0321 55.0842C18.8996 55.2167 18.7265 55.2825 18.5535 55.2825Z" fill="#EEEEEE"/>
</svg>
