<svg width="111" height="73" viewBox="0 0 111 73" fill="none" xmlns="http://www.w3.org/2000/svg">
<path d="M70.0753 34.462H40.8036C39.4952 34.462 38.4312 33.398 38.4312 32.0895V2.81683C38.4312 1.50838 39.4952 0.444336 40.8036 0.444336H70.0753C71.3837 0.444336 72.4488 1.50838 72.4488 2.81683V32.0895C72.4488 33.398 71.3837 34.462 70.0753 34.462ZM40.8036 2.0267C40.3675 2.0267 40.0135 2.38068 40.0135 2.81683V32.0895C40.0135 32.5257 40.3675 32.8807 40.8036 32.8807H70.0753C70.5104 32.8807 70.8665 32.5257 70.8665 32.0895V2.81683C70.8665 2.37963 70.5104 2.0267 70.0753 2.0267H40.8036Z" fill="#EEEEEE"/>
<path d="M51.0455 11.6023C50.9113 11.6023 50.7768 11.5512 50.6741 11.4484C50.4691 11.2435 50.4691 10.9106 50.6741 10.7057L55.0679 6.31187C55.0679 6.31183 55.068 6.3118 55.068 6.31177C55.2663 6.1129 55.6121 6.11312 55.8108 6.31174L60.2046 10.7056L51.0455 11.6023ZM51.0455 11.6023C51.1799 11.6023 51.3146 11.5513 51.4169 11.4484C51.417 11.4483 51.417 11.4482 51.4171 11.4482L55.4394 7.42588L59.4619 11.4484C59.6669 11.6534 59.9997 11.6534 60.2047 11.4484M51.0455 11.6023L60.2047 11.4484M60.2047 11.4484C60.4102 11.2435 60.4102 10.9106 60.2047 10.7057V11.4484Z" fill="#EEEEEE" stroke="#EEEEEE" stroke-width="0.2"/>
<path d="M70.0753 72.1701H40.8036C39.4952 72.1701 38.4312 71.105 38.4312 69.7966V40.5249C38.4312 39.2165 39.4952 38.1514 40.8036 38.1514H70.0753C71.3837 38.1514 72.4488 39.2165 72.4488 40.5249V69.7966C72.4488 71.105 71.3837 72.1701 70.0753 72.1701ZM40.8036 39.7337C40.3675 39.7337 40.0135 40.0888 40.0135 40.5249V69.7966C40.0135 70.2327 40.3675 70.5867 40.8036 70.5867H70.0753C70.5104 70.5867 70.8665 70.2327 70.8665 69.7966V40.5249C70.8665 40.0888 70.5104 39.7337 70.0753 39.7337H40.8036Z" fill="#EEEEEE"/>
<path d="M55.0687 66.7568L55.0687 66.7568L50.6748 62.3623C50.6748 62.3623 50.6748 62.3623 50.6748 62.3623C50.4699 62.1574 50.4699 61.8246 50.6748 61.6196M55.0687 66.7568L59.4626 61.6197L55.4401 65.6421L51.4176 61.6196C51.2121 61.4141 50.8798 61.4139 50.6748 61.6196M55.0687 66.7568C55.1673 66.8554 55.3009 66.9107 55.4401 66.9107C55.5793 66.9107 55.7129 66.8554 55.8115 66.7568L55.8115 66.7568M55.0687 66.7568L55.8115 66.7568M50.6748 61.6196C50.6747 61.6197 50.6747 61.6197 50.6747 61.6197L50.7455 61.6903L50.6748 61.6196C50.6748 61.6196 50.6748 61.6196 50.6748 61.6196ZM55.8115 66.7568L60.2053 62.3624C60.4109 62.1575 60.411 61.8246 60.2055 61.6196M55.8115 66.7568L60.2055 61.6196M60.2055 61.6196C60.0005 61.414 59.6677 61.414 59.4627 61.6196L60.2055 61.6196Z" fill="#EEEEEE" stroke="#EEEEEE" stroke-width="0.2"/>
<path d="M107.782 72.1701H78.5107C77.2022 72.1701 76.1382 71.105 76.1382 69.7966V40.5249C76.1382 39.2165 77.2022 38.1514 78.5107 38.1514H107.782C109.091 38.1514 110.156 39.2165 110.156 40.5249V69.7966C110.156 71.105 109.091 72.1701 107.782 72.1701ZM78.5107 39.7337C78.0756 39.7337 77.7195 40.0888 77.7195 40.5249V69.7966C77.7195 70.2327 78.0756 70.5867 78.5107 70.5867H107.782C108.218 70.5867 108.574 70.2327 108.574 69.7966V40.5249C108.574 40.0888 108.218 39.7337 107.782 39.7337H78.5107Z" fill="#EEEEEE"/>
<path d="M104.676 54.7894L100.282 50.3956L100.282 50.3955L100.282 50.3955C100.077 50.1899 99.7445 50.1899 99.5395 50.3955C99.3339 50.6005 99.3341 50.9328 99.5395 51.1382L103.562 55.1608L99.5396 59.1832C99.5396 59.1832 99.5395 59.1833 99.5395 59.1833C99.334 59.3883 99.334 59.7211 99.5395 59.926C99.6418 60.029 99.777 60.0799 99.9103 60.0799C100.044 60.0799 100.179 60.0288 100.282 59.9263L100.282 59.9261L104.676 55.5321C104.881 55.3271 104.881 54.9949 104.676 54.7895L104.676 54.7894Z" fill="#EEEEEE" stroke="#EEEEEE" stroke-width="0.2"/>
<path d="M32.3683 72.1701H3.09669C1.78824 72.1701 0.723145 71.105 0.723145 69.7966V40.5249C0.723145 39.2165 1.78824 38.1514 3.09669 38.1514H32.3683C33.6768 38.1514 34.7419 39.2165 34.7419 40.5249V69.7966C34.7419 71.105 33.6768 72.1701 32.3683 72.1701ZM3.09669 39.7337C2.66054 39.7337 2.30551 40.0888 2.30551 40.5249V69.7966C2.30551 70.2327 2.66054 70.5867 3.09669 70.5867H32.3683C32.8045 70.5867 33.1595 70.2327 33.1595 69.7966V40.5249C33.1595 40.0888 32.8045 39.7337 32.3683 39.7337H3.09669Z" fill="#EEEEEE"/>
<path d="M57.5962 23.4216L58.7446 17.3513H60.4966L58.604 25.8826H56.8345L55.4458 20.1755L54.0571 25.8826H52.2876L50.395 17.3513H52.147L53.3013 23.4099L54.7075 17.3513H56.1958L57.5962 23.4216Z" fill="#EEEEEE"/>
<path d="M22.7642 57.9028H19.6821L19.0962 59.6606H17.2271L20.4028 51.1294H22.0317L25.2251 59.6606H23.356L22.7642 57.9028ZM20.1567 56.479H22.2896L21.2173 53.2856L20.1567 56.479Z" fill="#EEEEEE"/>
<path d="M56.9341 54.4224C56.9341 54.0903 56.8169 53.8364 56.5825 53.6606C56.3481 53.481 55.9263 53.2935 55.3169 53.0981C54.7075 52.8989 54.2251 52.7036 53.8696 52.5122C52.9009 51.9888 52.4165 51.2837 52.4165 50.397C52.4165 49.936 52.5454 49.5259 52.8032 49.1665C53.0649 48.8032 53.438 48.52 53.9224 48.3169C54.4106 48.1138 54.9575 48.0122 55.563 48.0122C56.1724 48.0122 56.7153 48.1235 57.1919 48.3462C57.6685 48.5649 58.0376 48.8755 58.2993 49.2778C58.5649 49.6802 58.6978 50.1372 58.6978 50.6489H56.9399C56.9399 50.2583 56.8169 49.9556 56.5708 49.7407C56.3247 49.522 55.979 49.4126 55.5337 49.4126C55.104 49.4126 54.77 49.5044 54.5317 49.688C54.2935 49.8677 54.1743 50.106 54.1743 50.4028C54.1743 50.6802 54.313 50.9126 54.5903 51.1001C54.8716 51.2876 55.2837 51.4634 55.8267 51.6274C56.8267 51.9282 57.5552 52.3013 58.0122 52.7466C58.4692 53.1919 58.6978 53.7466 58.6978 54.4106C58.6978 55.1489 58.4185 55.729 57.8599 56.1509C57.3013 56.5688 56.5493 56.7778 55.604 56.7778C54.9478 56.7778 54.3501 56.6587 53.811 56.4204C53.272 56.1782 52.8599 55.8481 52.5747 55.4302C52.2935 55.0122 52.1528 54.5278 52.1528 53.9771H53.9165C53.9165 54.9185 54.479 55.3892 55.604 55.3892C56.022 55.3892 56.3481 55.3052 56.5825 55.1372C56.8169 54.9653 56.9341 54.7271 56.9341 54.4224Z" fill="#EEEEEE"/>
<path d="M87.0063 59.6606V51.1294H89.6313C90.3813 51.1294 91.0513 51.2993 91.6411 51.6392C92.2349 51.9751 92.6978 52.4556 93.0298 53.0806C93.3618 53.7017 93.5278 54.4087 93.5278 55.2017V55.5942C93.5278 56.3872 93.3638 57.0923 93.0356 57.7095C92.7114 58.3267 92.2524 58.8052 91.6587 59.145C91.0649 59.4849 90.395 59.6567 89.6489 59.6606H87.0063ZM88.7642 52.5532V58.2485H89.6138C90.3013 58.2485 90.8267 58.0239 91.1899 57.5747C91.5532 57.1255 91.7388 56.4829 91.7466 55.647V55.1958C91.7466 54.3286 91.5669 53.6724 91.2075 53.2271C90.8481 52.7778 90.3228 52.5532 89.6313 52.5532H88.7642Z" fill="#EEEEEE"/>
<path d="M5.97852 55.5326L5.9784 55.5325C5.77367 55.3271 5.7735 54.9949 5.97852 54.7899L10.3723 50.3961L5.97852 55.5326ZM5.97852 55.5326L10.3725 59.9266C10.4753 60.0294 10.6104 60.0804 10.7438 60.0804C10.878 60.0804 11.0124 60.0293 11.1152 59.9266C11.3202 59.7216 11.3202 59.3888 11.1152 59.1838L11.0445 59.2545L11.1152 59.1838L7.0921 55.1613M5.97852 55.5326L7.0921 55.1613M7.0921 55.1613L11.1152 51.1387L11.1153 51.1386C11.3201 50.9331 11.3202 50.601 11.1152 50.3959C11.1153 50.396 11.1153 50.396 11.1153 50.3961L7.0921 55.1613Z" fill="#EEEEEE" stroke="#EEEEEE" stroke-width="0.2"/>
</svg>
