<svg width="37" height="65" viewBox="0 0 37 65" fill="none" xmlns="http://www.w3.org/2000/svg">
<path d="M34.7282 0.000464318C34.4217 0.0509352 34.1667 0.329426 34.1405 0.658388C33.963 2.10041 33.5791 3.1621 32.8644 3.8705C32.1758 4.57889 31.1042 5.03403 29.2665 5.03403H29.2404L22.936 4.85739C21.7617 4.85739 20.408 5.16111 19.3363 6.19757C18.29 7.23492 17.6519 8.92931 17.6266 11.4844C8.00383 11.8377 0.34668 19.5273 0.34668 29.0113V46.7419C0.34668 56.4287 8.38687 64.2445 18.3414 64.2445C28.2958 64.2445 36.3351 56.4287 36.3351 46.7419V35.1075C36.3613 35.057 36.3613 34.9804 36.3613 34.9047V29.0113C36.3613 27.1898 36.0548 25.445 35.5177 23.7759C35.442 23.5226 35.3645 23.245 35.2626 22.9665H35.2383C35.1364 22.688 35.0589 22.46 34.9562 22.2077C34.9319 22.1824 34.9319 22.1824 34.9319 22.1824C34.803 21.9292 34.7011 21.6516 34.575 21.4236C34.575 21.3983 34.575 21.3983 34.575 21.3983C34.4461 21.146 34.2929 20.8927 34.1667 20.6395C34.0135 20.3862 33.8846 20.1338 33.7323 19.9058C33.5791 19.6787 33.4258 19.4254 33.2726 19.1974C33.2726 19.1974 33.2726 19.1974 33.2483 19.1722C33.0951 18.9694 32.9419 18.7414 32.7886 18.5143L32.7625 18.489C32.585 18.2862 32.4317 18.0844 32.2524 17.8563C32.2281 17.8563 32.2281 17.8563 32.2281 17.8563C32.0487 17.6292 31.8712 17.4264 31.6909 17.2237C31.6666 17.2237 31.6666 17.1984 31.6666 17.1984C31.462 16.9956 31.2826 16.819 31.1051 16.6162C31.0789 16.6162 31.0789 16.591 31.0789 16.591C30.8744 16.4143 30.6707 16.2115 30.4661 16.0349C30.4661 16.0349 30.4417 16.0349 30.4417 16.0096C30.2372 15.833 30.0335 15.6555 29.8027 15.4788V15.4536C29.5738 15.2769 29.3701 15.1246 29.1394 14.9732L29.1151 14.948C28.8844 14.7965 28.6554 14.619 28.4247 14.4676C28.4004 14.4676 28.4004 14.4676 28.4004 14.4676C28.1697 14.3162 27.9407 14.1648 27.71 14.0377C27.6857 14.0377 27.6857 14.0124 27.6857 14.0124C27.4306 13.861 27.1756 13.734 26.9448 13.6078C26.9205 13.6078 26.9205 13.5825 26.9205 13.5825C26.6654 13.4555 26.4347 13.3293 26.1797 13.2031C26.1553 13.2031 26.1553 13.1779 26.1553 13.1779C25.9003 13.0769 25.6452 12.9751 25.3892 12.875C25.3631 12.875 25.3631 12.8498 25.3631 12.8498C25.1081 12.7489 24.8278 12.647 24.5466 12.5713C24.5466 12.5461 24.5466 12.5461 24.5222 12.5461C24.2672 12.4451 23.9851 12.3442 23.7057 12.2676C22.2501 11.8125 20.6937 11.5592 19.0858 11.4835C19.0858 9.18166 19.6734 7.91718 20.3881 7.20879C21.1028 6.50039 21.9951 6.29851 22.9144 6.29851H22.9405L29.244 6.47606C31.3637 6.47606 32.895 5.91908 33.9161 4.88262C34.9373 3.84526 35.3699 2.42938 35.5501 0.810702C35.6258 0.380798 35.2176 -0.0238699 34.784 0.00136558C34.7795 0.000464318 34.7525 0.000464318 34.7282 0.000464318ZM18.3666 12.9255C20.0772 12.9255 21.7355 13.1526 23.3181 13.6339C23.5489 13.7096 23.8039 13.7853 24.059 13.8872C24.059 13.8872 24.059 13.8872 24.0833 13.8872C24.314 13.9881 24.543 14.0638 24.798 14.1657C24.798 14.1657 24.798 14.1909 24.8242 14.1909C25.0531 14.2918 25.3081 14.3684 25.5389 14.4694C25.5389 14.4946 25.5389 14.4946 25.5632 14.4946C25.7939 14.6208 26.0228 14.7217 26.2536 14.8236C26.2536 14.8488 26.2779 14.8488 26.2779 14.8488C26.5086 14.975 26.7123 15.0759 26.9412 15.203C26.9412 15.2283 26.9412 15.2283 26.9412 15.2283C27.172 15.3544 27.4009 15.5067 27.6046 15.6329L27.6307 15.6582C27.8353 15.8096 28.0633 15.9366 28.2679 16.0881V16.1133C28.4725 16.2647 28.7023 16.3918 28.8808 16.5432C28.9069 16.5684 28.9069 16.5684 28.9069 16.5684C29.1115 16.7451 29.3152 16.8974 29.4927 17.074C29.4927 17.074 29.5189 17.074 29.5189 17.0993C29.6964 17.2507 29.8758 17.4282 30.0542 17.6049C30.0542 17.6049 30.0803 17.6049 30.0803 17.6301C30.2579 17.8068 30.4372 17.9843 30.5905 18.161C30.6148 18.161 30.6148 18.161 30.6148 18.1862C30.7941 18.3629 30.9717 18.5404 31.1249 18.7423C31.151 18.7423 31.151 18.7423 31.151 18.7675C31.3286 18.9442 31.4575 19.147 31.6107 19.3497C31.6107 19.3497 31.635 19.3497 31.635 19.375C31.7882 19.5525 31.9415 19.7796 32.0947 19.9824C32.0947 20.0077 32.0947 20.0077 32.0947 20.0077C32.2479 20.2104 32.3768 20.4123 32.5029 20.6404C32.5291 20.6404 32.5291 20.6404 32.5291 20.6656C32.6562 20.8675 32.7841 21.0955 32.9112 21.2974C32.9112 21.3226 32.9374 21.3226 32.9374 21.3226C33.0644 21.5497 33.1663 21.7778 33.2681 22.0058H33.2943C33.3961 22.2329 33.4988 22.4861 33.6007 22.7142C33.6007 22.7142 33.6007 22.7142 33.6007 22.7394C33.7025 22.9674 33.8053 23.1945 33.9071 23.4478C34.5443 25.1674 34.9021 27.0393 34.9021 29.0122V34.1972H1.80132V29.0113C1.80132 20.1086 9.15295 12.9255 18.3666 12.9255ZM18.2647 17.933C17.9078 17.9834 17.6266 18.3124 17.6266 18.6666V28.4543C17.6266 28.8338 17.9835 29.188 18.3666 29.188C18.7235 29.188 19.0813 28.8338 19.0813 28.4543V18.6666C19.0813 18.2619 18.673 17.8825 18.2647 17.933ZM1.77609 35.614H34.9057V46.7428C34.9057 55.6707 27.5298 62.8295 18.3414 62.8295C9.15295 62.8295 1.77609 55.6716 1.77609 46.7428V35.614Z" fill="#EEEEEE"/>
</svg>
