<svg width="52" height="53" viewBox="0 0 52 53" fill="none" xmlns="http://www.w3.org/2000/svg">
<path d="M1.41541 14.0145L26.0749 1.39021L50.5854 14.0145M1.41541 14.0145L26.0749 26.7723M1.41541 14.0145V39.263L26.0749 51.8205M26.0749 26.7723L50.5854 14.0145M26.0749 26.7723V51.8205M50.5854 14.0145V39.263L26.0749 51.8205" stroke="#9A9A9A" stroke-width="1.2" stroke-dasharray="3 3"/>
<path d="M25.4504 1.39006V2.96809H26.6504V1.39006H25.4504ZM25.4504 6.12416V9.28023H26.6504V6.12416H25.4504ZM25.4504 12.4363V15.5924H26.6504V12.4363H25.4504ZM25.4504 18.7484V21.9045H26.6504V18.7484H25.4504ZM25.4504 25.0606V26.6386H26.6504V25.0606H25.4504Z" fill="#9A9A9A"/>
<path d="M25.4776 26.2293L24.2582 26.8606L24.9079 27.8695L26.1273 27.2383L25.4776 26.2293ZM21.8194 28.123L19.3806 29.3854L20.0302 30.3943L22.4691 29.1319L21.8194 28.123ZM16.9417 30.6478L14.5029 31.9103L15.1526 32.9192L17.5914 31.6567L16.9417 30.6478ZM12.0641 33.1727L9.62531 34.4351L10.275 35.444L12.7138 34.1816L12.0641 33.1727ZM7.1865 35.6975L4.74769 36.96L5.39738 37.9689L7.83619 36.7065L7.1865 35.6975ZM2.30888 38.2224L1.08947 38.8536L1.73916 39.8625L2.95856 39.2313L2.30888 38.2224Z" fill="#9A9A9A"/>
<path d="M25.7256 27.2383L26.945 27.8695L27.5947 26.8606L26.3753 26.2293L25.7256 27.2383ZM29.3838 29.1319L31.8227 30.3943L32.4723 29.3854L30.0335 28.123L29.3838 29.1319ZM34.2615 31.6567L36.7003 32.9192L37.35 31.9103L34.9112 30.6478L34.2615 31.6567ZM39.1391 34.1816L41.5779 35.444L42.2276 34.4351L39.7888 33.1727L39.1391 34.1816ZM44.0167 36.7065L46.4555 37.9689L47.1052 36.96L44.6664 35.6975L44.0167 36.7065ZM48.8943 39.2313L50.1137 39.8625L50.7634 38.8536L49.544 38.2224L48.8943 39.2313Z" fill="#9A9A9A"/>
</svg>
