<svg width="220" height="206" viewBox="0 0 220 206" fill="none" xmlns="http://www.w3.org/2000/svg">
<path d="M126.082 204.606V148.036L195.599 109.706V169.449L126.082 204.606Z" fill="white" stroke="#9A9A9A"/>
<path d="M132.536 172.531V168.739H133.286V167.301L134.981 166.434L134.639 165.766L138.846 163.614L139.187 164.282L143.394 162.13L143.052 161.462L147.259 159.31L147.6 159.978L148.612 159.46V160.066H149.362V163.731H148.612V167.396H149.362V171.061H148.612V172.447L146.901 173.374L147.259 174.033L143.052 176.313L142.695 175.654L138.488 177.934L138.846 178.593L134.639 180.873L134.282 180.214L133.286 180.753V180.117H132.536V176.324H133.286V172.531H132.536Z" stroke="#9A9A9A" stroke-width="1.5" stroke-dasharray="4 4"/>
<path d="M152.429 162.263V158.471H153.179V157.033L154.874 156.166L154.532 155.498L158.738 153.346L159.08 154.014L163.286 151.862L162.945 151.194L167.151 149.042L167.493 149.71L168.504 149.192V149.799H169.254V153.463H168.504V157.128H169.254V160.793H168.504V162.179L166.794 163.106L167.151 163.765L162.945 166.045L162.587 165.386L158.381 167.666L158.738 168.325L154.532 170.605L154.175 169.946L153.179 170.486V169.849H152.429V166.056H153.179V162.263H152.429Z" stroke="#9A9A9A" stroke-width="1.5" stroke-dasharray="4 4"/>
<path d="M172.319 151.792V148H173.069V146.562L174.764 145.695L174.423 145.027L178.629 142.875L178.971 143.543L183.177 141.391L182.835 140.723L187.042 138.571L187.383 139.239L188.395 138.721V139.328H189.145V142.992H188.395V146.657H189.145V150.322H188.395V151.708L186.685 152.635L187.042 153.295L182.835 155.574L182.478 154.915L178.272 157.195L178.629 157.854L174.423 160.134L174.065 159.475L173.069 160.015V159.378H172.319V155.585H173.069V151.792H172.319Z" stroke="#9A9A9A" stroke-width="1.5" stroke-dasharray="4 4"/>
<path d="M126.368 60.9338V1.42277L195.598 37.5929V97.1038L126.368 60.9338Z" stroke="#9A9A9A"/>
<path d="M133.254 30.3012L134.267 30.8244L134.611 30.1581L138.825 32.3354L138.481 33.0017L142.695 35.179L143.039 34.5127L147.253 36.69L146.909 37.3563L148.61 38.2353V39.6197H149.36V43.3019H148.61V46.9841H149.36V50.6663H148.61V51.284L147.593 50.7664L147.253 51.4347L143.039 49.2895L143.379 48.6211L139.165 46.4758L138.825 47.1442L134.611 44.9989L134.951 44.3305L133.254 43.4665V42.0692H132.504V38.355H133.254V34.6408H132.504V30.9266H133.254V30.3012Z" stroke="#9A9A9A" stroke-width="1.5" stroke-dasharray="4 4"/>
<path d="M153.306 40.7734L154.318 41.2967L154.663 40.6304L158.877 42.8077L158.532 43.474L162.747 45.6513L163.091 44.985L167.305 47.1623L166.961 47.8286L168.662 48.7076V50.092H169.412V53.7742H168.662V57.4564H169.412V61.1386H168.662V61.7563L167.645 61.2386L167.305 61.907L163.091 59.7617L163.431 59.0934L159.217 56.9481L158.877 57.6165L154.663 55.4712L155.003 54.8028L153.306 53.9388V52.5415H152.556V48.8273H153.306V45.1131H152.556V41.3989H153.306V40.7734Z" stroke="#9A9A9A" stroke-width="1.5" stroke-dasharray="4 4"/>
<path d="M173.357 51.0385L174.37 51.5618L174.714 50.8955L178.929 53.0728L178.584 53.7391L182.798 55.9164L183.143 55.2501L187.357 57.4273L187.012 58.0937L188.714 58.9727V60.3571H189.464V64.0393H188.714V67.7215H189.464V71.4036H188.714V72.0213L187.697 71.5037L187.357 72.1721L183.143 70.0268L183.483 69.3584L179.269 67.2132L178.929 67.8816L174.714 65.7363L175.055 65.0679L173.357 64.2039V62.8065H172.607V59.0923H173.357V55.3781H172.607V51.6639H173.357V51.0385Z" stroke="#9A9A9A" stroke-width="1.5" stroke-dasharray="4 4"/>
<path d="M24.874 96.9241V37.4421L94.0139 1.42024V60.7577L24.874 96.9241Z" fill="white" stroke="#9A9A9A"/>
<path d="M31.1406 64.0807V60.288H31.8906V58.8504L33.5854 57.9833L33.2438 57.3156L37.4503 55.1636L37.7919 55.8313L41.9983 53.6792L41.6567 53.0115L45.8632 50.8595L46.2048 51.5272L47.2164 51.0096V51.6159H47.9664V55.2808H47.2164V58.9456H47.9664V62.6105H47.2164V63.9964L45.5058 64.9235L45.8632 65.5829L41.6567 67.8628L41.2993 67.2034L37.0929 69.4833L37.4503 70.1427L33.2438 72.4225L32.8865 71.7632L31.8906 72.3029V71.6661H31.1406V67.8734H31.8906V64.0807H31.1406Z" fill="white" stroke="#9A9A9A" stroke-width="1.5" stroke-dasharray="4 4"/>
<path d="M51.0332 53.8123V50.0196H51.7832V48.582L53.478 47.7149L53.1364 47.0472L57.3429 44.8952L57.6845 45.5629L61.8909 43.4108L61.5493 42.7431L65.7558 40.5911L66.0973 41.2588L67.109 40.7412V41.3475H67.859V45.0124H67.109V48.6773H67.859V52.3421H67.109V53.728L65.3984 54.6551L65.7558 55.3145L61.5493 57.5944L61.1919 56.935L56.9855 59.2149L57.3429 59.8743L53.1364 62.1542L52.779 61.4948L51.7832 62.0345V61.3978H51.0332V57.605H51.7832V53.8123H51.0332Z" stroke="#9A9A9A" stroke-width="1.5" stroke-dasharray="4 4"/>
<path d="M70.9238 43.3425V39.5498H71.6738V38.1122L73.3686 37.2451L73.027 36.5774L77.2335 34.4253L77.5751 35.093L81.7815 32.941L81.4399 32.2733L85.6464 30.1213L85.988 30.7889L86.9996 30.2714V30.8777H87.7496V34.5425H86.9996V38.2074H87.7496V41.8723H86.9996V43.2581L85.289 44.1853L85.6464 44.8447L81.4399 47.1245L81.0826 46.4652L76.8761 48.7451L77.2335 49.4044L73.027 51.6843L72.6697 51.025L71.6738 51.5647V50.9279H70.9238V47.1352H71.6738V43.3425H70.9238Z" stroke="#9A9A9A" stroke-width="1.5" stroke-dasharray="4 4"/>
<path d="M24.9004 169.192V109.713L93.5557 148.163V204.089L24.9004 169.192Z" fill="white" stroke="#9A9A9A"/>
<path d="M31.498 138.213L32.5108 138.736L32.8551 138.069L37.0691 140.247L36.7249 140.913L40.9389 143.09L41.2832 142.424L45.4973 144.601L45.153 145.268L46.8543 146.147V147.531H47.6043V151.213H46.8543V154.895H47.6043V158.578H46.8543V159.195L45.8375 158.678L45.4973 159.346L41.2832 157.201L41.6235 156.532L37.4094 154.387L37.0691 155.056L32.8551 152.91L33.1953 152.242L31.498 151.378V149.981H30.748V146.266H31.498V142.552H30.748V138.838H31.498V138.213Z" stroke="#9A9A9A" stroke-width="1.5" stroke-dasharray="4 4"/>
<path d="M51.5508 148.662L52.5635 149.185L52.9078 148.519L57.1219 150.696L56.7776 151.363L60.9917 153.54L61.3359 152.874L65.55 155.051L65.2057 155.717L66.907 156.596V157.981H67.657V161.663H66.907V165.345H67.657V169.027H66.907V169.645L65.8903 169.127L65.55 169.796L61.3359 167.65L61.6762 166.982L57.4621 164.837L57.1219 165.505L52.9078 163.36L53.2481 162.691L51.5508 161.827V160.43H50.8008V156.716H51.5508V153.002H50.8008V149.287H51.5508V148.662Z" stroke="#9A9A9A" stroke-width="1.5" stroke-dasharray="4 4"/>
<path d="M71.6006 158.951L72.6134 159.474L72.9576 158.808L77.1717 160.985L76.8274 161.651L81.0415 163.829L81.3857 163.162L85.5998 165.34L85.2555 166.006L86.9568 166.885V168.27H87.7068V171.952H86.9568V175.634H87.7068V179.316H86.9568V179.934L85.9401 179.416L85.5998 180.085L81.3857 177.939L81.726 177.271L77.5119 175.126L77.1717 175.794L72.9576 173.649L73.2979 172.98L71.6006 172.116V170.719H70.8506V167.005H71.6006V163.291H70.8506V159.576H71.6006V158.951Z" stroke="#9A9A9A" stroke-width="1.5" stroke-dasharray="4 4"/>
<path d="M100.795 173.68L109.977 168.979L119.103 173.68M100.795 173.68L109.977 178.43M100.795 173.68V183.081L109.977 187.756M109.977 178.43L119.103 173.68M109.977 178.43V187.756M119.103 173.68V183.081L109.977 187.756" stroke="#9A9A9A" stroke-width="1.2" stroke-dasharray="3 3"/>
<path d="M109.366 168.978V170.153H110.566V168.978H109.366ZM109.366 172.503V174.854H110.566V172.503H109.366ZM109.366 177.204V178.379H110.566V177.204H109.366Z" fill="#9A9A9A"/>
<path d="M109.549 177.91L108.414 178.498L109.064 179.507L110.199 178.919L109.549 177.91ZM106.144 179.673L103.874 180.848L104.523 181.857L106.794 180.682L106.144 179.673ZM101.604 182.023L100.469 182.611L101.118 183.62L102.253 183.032L101.604 182.023Z" fill="#9A9A9A"/>
<path d="M109.641 178.919L110.776 179.507L111.426 178.498L110.291 177.91L109.641 178.919ZM113.046 180.682L115.316 181.857L115.966 180.848L113.696 179.673L113.046 180.682ZM117.587 183.032L118.722 183.62L119.371 182.611L118.236 182.023L117.587 183.032Z" fill="#9A9A9A"/>
<path d="M200.988 98.5701L210.17 93.8696L219.296 98.5701M200.988 98.5701L210.17 103.32M200.988 98.5701V107.971L210.17 112.647M210.17 103.32L219.296 98.5701M210.17 103.32V112.647M219.296 98.5701V107.971L210.17 112.647" stroke="#9A9A9A" stroke-width="1.2" stroke-dasharray="3 3"/>
<path d="M209.56 93.8688V95.044H210.76V93.8688H209.56ZM209.56 97.3942V99.7444H210.76V97.3942H209.56ZM209.56 102.095V103.27H210.76V102.095H209.56Z" fill="#9A9A9A"/>
<path d="M209.744 102.801L208.609 103.389L209.259 104.398L210.394 103.81L209.744 102.801ZM206.339 104.564L204.069 105.739L204.719 106.748L206.989 105.573L206.339 104.564ZM201.799 106.914L200.664 107.502L201.314 108.511L202.449 107.923L201.799 106.914Z" fill="#9A9A9A"/>
<path d="M209.835 103.81L210.97 104.398L211.62 103.389L210.485 102.801L209.835 103.81ZM213.241 105.573L215.511 106.748L216.16 105.739L213.89 104.564L213.241 105.573ZM217.781 107.923L218.916 108.511L219.566 107.502L218.431 106.914L217.781 107.923Z" fill="#9A9A9A"/>
<path d="M100.793 26.8584L109.975 22.1579L119.101 26.8584M100.793 26.8584L109.975 31.6086M100.793 26.8584V36.2594L109.975 40.935M109.975 31.6086L119.101 26.8584M109.975 31.6086V40.935M119.101 26.8584V36.2594L109.975 40.935" stroke="#9A9A9A" stroke-width="1.2" stroke-dasharray="3 3"/>
<path d="M109.366 22.1577V23.3328H110.566V22.1577H109.366ZM109.366 25.6831V28.0333H110.566V25.6831H109.366ZM109.366 30.3836V31.5587H110.566V30.3836H109.366Z" fill="#9A9A9A"/>
<path d="M109.549 31.0896L108.414 31.6772L109.064 32.6861L110.199 32.0985L109.549 31.0896ZM106.144 32.8523L103.874 34.0274L104.523 35.0363L106.794 33.8612L106.144 32.8523ZM101.604 35.2025L100.469 35.7901L101.118 36.799L102.253 36.2114L101.604 35.2025Z" fill="#9A9A9A"/>
<path d="M109.641 32.0985L110.776 32.6861L111.426 31.6772L110.291 31.0896L109.641 32.0985ZM113.046 33.8612L115.316 35.0363L115.966 34.0274L113.696 32.8523L113.046 33.8612ZM117.587 36.2114L118.722 36.799L119.371 35.7901L118.236 35.2025L117.587 36.2114Z" fill="#9A9A9A"/>
<path d="M100.793 106.017L109.975 101.316L119.101 106.017M100.793 106.017L109.975 110.767M100.793 106.017V115.418L109.975 120.094M109.975 110.767L119.101 106.017M109.975 110.767V120.094M119.101 106.017V115.418L109.975 120.094" stroke="#9A9A9A" stroke-width="1.2" stroke-dasharray="3 3"/>
<path d="M109.366 101.316V102.491H110.566V101.316H109.366ZM109.366 104.841V107.191H110.566V104.841H109.366ZM109.366 109.542V110.717H110.566V109.542H109.366Z" fill="#9A9A9A"/>
<path d="M109.549 110.248L108.414 110.836L109.064 111.845L110.199 111.257L109.549 110.248ZM106.144 112.011L103.874 113.186L104.523 114.195L106.794 113.02L106.144 112.011ZM101.604 114.361L100.469 114.949L101.118 115.958L102.253 115.37L101.604 114.361Z" fill="#9A9A9A"/>
<path d="M109.641 111.257L110.776 111.845L111.426 110.836L110.291 110.248L109.641 111.257ZM113.046 113.02L115.316 114.195L115.966 113.186L113.696 112.011L113.046 113.02ZM117.587 115.37L118.722 115.958L119.371 114.949L118.236 114.361L117.587 115.37Z" fill="#9A9A9A"/>
<path d="M0.601562 98.5697L9.7832 93.8692L18.9094 98.5697M0.601562 98.5697L9.7832 103.32M0.601562 98.5697V107.971L9.7832 112.646M9.7832 103.32L18.9094 98.5697M9.7832 103.32V112.646M18.9094 98.5697V107.971L9.7832 112.646" stroke="#9A9A9A" stroke-width="1.2" stroke-dasharray="3 3"/>
<path d="M9.17148 93.8693V95.0444H10.3715V93.8693H9.17148ZM9.17148 97.3947V99.7449H10.3715V97.3947H9.17148ZM9.17148 102.095V103.27H10.3715V102.095H9.17148Z" fill="#9A9A9A"/>
<path d="M9.35582 102.802L8.22074 103.389L8.87043 104.398L10.0055 103.811L9.35582 102.802ZM5.95059 104.564L3.68044 105.739L4.33013 106.748L6.60028 105.573L5.95059 104.564ZM1.41029 106.915L0.275218 107.502L0.924906 108.511L2.05998 107.924L1.41029 106.915Z" fill="#9A9A9A"/>
<path d="M9.44664 103.811L10.5817 104.398L11.2314 103.389L10.0963 102.802L9.44664 103.811ZM12.8519 105.573L15.122 106.748L15.7717 105.739L13.5016 104.564L12.8519 105.573ZM17.3922 107.924L18.5272 108.511L19.1769 107.502L18.0419 106.915L17.3922 107.924Z" fill="#9A9A9A"/>
<g filter="url(#filter0_d)">
<path d="M95.6504 82.542C95.6504 81.1729 95.6504 80.4884 95.734 79.9147C96.2443 76.4127 98.9949 73.6621 102.497 73.1518C103.071 73.0682 103.755 73.0682 105.124 73.0682H114.77C116.139 73.0682 116.824 73.0682 117.398 73.1518C120.9 73.6621 123.65 76.4127 124.161 79.9147C124.244 80.4884 124.244 81.1729 124.244 82.542C124.244 83.9111 124.244 84.5956 124.161 85.1694C123.65 88.6714 120.9 91.422 117.398 91.9323C116.824 92.0159 116.139 92.0159 114.77 92.0159H105.124C103.755 92.0159 103.071 92.0159 102.497 91.9323C98.9949 91.422 96.2443 88.6714 95.734 85.1694C95.6504 84.5956 95.6504 83.9111 95.6504 82.542Z" fill="#FCFCFC"/>
</g>
<path d="M116.304 85.7834L109.928 89.0336L103.591 85.7834L103.591 79.2831L109.928 76.0502L116.304 79.2831L116.304 85.7834Z" fill="#FCFCFC"/>
<path d="M116.304 85.7834L109.928 89.0336L103.591 85.7834M116.304 85.7834L109.928 82.4989M116.304 85.7834L116.304 79.2831L109.928 76.0502M109.928 82.4989L103.591 85.7834M109.928 82.4989L109.928 76.0502M103.591 85.7834L103.591 79.2831L109.928 76.0502" stroke="#ABABAB" stroke-dasharray="2 2"/>
<path d="M110.433 89.0332L110.433 88.2207L109.433 88.2207L109.433 89.0332L110.433 89.0332ZM110.433 86.5956L110.433 84.9705L109.433 84.9705L109.433 86.5956L110.433 86.5956ZM110.433 83.3454L110.433 82.5329L109.433 82.5329L109.433 83.3454L110.433 83.3454Z" fill="#ABABAB"/>
<path d="M110.269 82.9274L111.057 82.5212L110.514 81.6814L109.726 82.0877L110.269 82.9274ZM112.633 81.7086L114.209 80.8961L113.666 80.0564L112.09 80.8689L112.633 81.7086ZM115.786 80.0835L116.574 79.6773L116.031 78.8376L115.243 79.2438L115.786 80.0835Z" fill="#ABABAB"/>
<path d="M110.204 82.0877L109.416 81.6814L108.873 82.5212L109.661 82.9274L110.204 82.0877ZM107.84 80.8689L106.263 80.0564L105.72 80.8961L107.297 81.7086L107.84 80.8689ZM104.687 79.2438L103.899 78.8376L103.356 79.6773L104.144 80.0835L104.687 79.2438Z" fill="#ABABAB"/>
<defs>
<filter id="filter0_d" x="35.6504" y="45.0682" width="148.594" height="138.948" filterUnits="userSpaceOnUse" color-interpolation-filters="sRGB">
<feFlood flood-opacity="0" result="BackgroundImageFix"/>
<feColorMatrix in="SourceAlpha" type="matrix" values="0 0 0 0 0 0 0 0 0 0 0 0 0 0 0 0 0 0 127 0"/>
<feOffset dy="32"/>
<feGaussianBlur stdDeviation="30"/>
<feColorMatrix type="matrix" values="0 0 0 0 0.27451 0 0 0 0 0.262745 0 0 0 0 0.309804 0 0 0 0.08 0"/>
<feBlend mode="normal" in2="BackgroundImageFix" result="effect1_dropShadow"/>
<feBlend mode="normal" in="SourceGraphic" in2="effect1_dropShadow" result="shape"/>
</filter>
</defs>
</svg>
