<svg width="291" height="177" viewBox="0 0 291 177" fill="none" xmlns="http://www.w3.org/2000/svg">
<rect x="50.6089" y="31.6079" width="81.5078" height="64.3519" fill="#F5F7FE"/>
<g filter="url(#filter0_d)">
<path d="M60.3943 56.3569C60.3943 51.7254 60.3943 49.4097 61.3242 47.6535C62.0746 46.2362 63.2336 45.0772 64.6508 44.3268C66.4071 43.3969 68.7228 43.3969 73.3543 43.3969H109C113.631 43.3969 115.947 43.3969 117.703 44.3268C119.12 45.0772 120.279 46.2362 121.03 47.6535C121.96 49.4097 121.96 51.7254 121.96 56.3569V71.2332C121.96 75.8647 121.96 78.1804 121.03 79.9366C120.279 81.3539 119.12 82.5129 117.703 83.2633C115.947 84.1932 113.631 84.1932 109 84.1932H73.3543C68.7228 84.1932 66.4071 84.1932 64.6508 83.2633C63.2336 82.5129 62.0746 81.3539 61.3242 79.9366C60.3943 78.1804 60.3943 75.8647 60.3943 71.2332V56.3569Z" fill="#FCFCFC"/>
</g>
<path d="M104.863 70.7742L91.1357 77.7721L77.4913 70.7742L77.4913 56.7784L91.1357 49.8175L104.863 56.7784L104.863 70.7742Z" fill="#FCFCFC"/>
<path d="M104.863 70.7742L91.1357 77.7721L77.4913 70.7742M104.863 70.7742L91.1357 63.7022M104.863 70.7742L104.863 56.7784L91.1357 49.8175M91.1357 63.7022L77.4913 70.7742M91.1357 63.7022L91.1357 49.8175M77.4913 70.7742L77.4913 56.7784L91.1357 49.8175" stroke="#ABABAB" stroke-dasharray="2 2"/>
<path d="M91.6484 77.7715L91.6484 76.6052L90.6484 76.6052L90.6484 77.7715L91.6484 77.7715ZM91.6484 74.2726L91.6484 71.9399L90.6484 71.9399L90.6484 74.2726L91.6484 74.2726ZM91.6484 69.6073L91.6484 67.2747L90.6484 67.2747L90.6484 69.6073L91.6484 69.6073ZM91.6484 64.942L91.6484 63.7757L90.6484 63.7757L90.6484 64.942L91.6484 64.942Z" fill="#ABABAB"/>
<path d="M91.5576 64.141L92.4062 63.7036L91.8631 62.8639L91.0146 63.3013L91.5576 64.141ZM94.1032 62.8289L95.8002 61.9541L95.2572 61.1144L93.5602 61.9891L94.1032 62.8289ZM97.4973 61.0794L99.1943 60.2046L98.6513 59.3649L96.9542 60.2397L97.4973 61.0794ZM100.891 59.3299L102.588 58.4552L102.045 57.6155L100.348 58.4902L100.891 59.3299ZM104.285 57.5804L105.134 57.1431L104.591 56.3033L103.742 56.7407L104.285 57.5804Z" fill="#ABABAB"/>
<path d="M91.42 63.3013L90.5714 62.8639L90.0284 63.7036L90.8769 64.141L91.42 63.3013ZM88.8744 61.9891L87.1774 61.1144L86.6343 61.9541L88.3314 62.8289L88.8744 61.9891ZM85.4803 60.2397L83.7833 59.3649L83.2403 60.2046L84.9373 61.0794L85.4803 60.2397ZM82.0863 58.4902L80.3892 57.6155L79.8462 58.4552L81.5432 59.3299L82.0863 58.4902ZM78.6922 56.7407L77.8437 56.3033L77.3006 57.1431L78.1492 57.5804L78.6922 56.7407Z" fill="#ABABAB"/>
<g clip-path="url(#clip0)">
<g filter="url(#filter1_d)">
<path d="M117.05 87.3756C117.225 87.7965 117.057 89.3907 116.127 89.7602C115.197 90.1297 114.009 89.7602 114.009 89.7602L111.853 85.4484L108.127 89.1744V72.346L119.541 83.7602H115.288C115.497 84.1604 116.827 86.8408 117.05 87.3756Z" fill="white"/>
<path fill-rule="evenodd" clip-rule="evenodd" d="M109.127 74.7602V86.7602L112.127 83.7602L114.627 88.7602C114.627 88.7602 115.303 88.976 115.627 88.7602C115.95 88.5444 116.272 88.1098 116.127 87.7602C115.439 86.1098 113.627 82.7602 113.627 82.7602H117.127L109.127 74.7602Z" fill="black"/>
</g>
</g>
<g opacity="0.25">
<path d="M232.698 126.644V91.6968L275.673 68.0013V104.91L232.698 126.644Z" fill="white" stroke="#9A9A9A" stroke-width="0.7"/>
<path d="M236.655 104.73V103.79H237.005V103.535L237.248 103.41L237.089 103.098L237.957 102.654L238.117 102.966L238.985 102.521L238.826 102.21L239.694 101.765L239.854 102.077L240.722 101.633L240.563 101.321L241.431 100.877L241.59 101.188L242.459 100.744L242.299 100.433L243.168 99.9883L243.327 100.3L244.196 99.8556L244.036 99.544L244.905 99.0997L245.064 99.4113L245.933 98.967L245.773 98.6554L246.642 98.2111L246.726 98.3757V98.4429H246.76L246.801 98.5227L246.957 98.4429H247.076V99.3509H246.726V100.259H247.076V101.167H246.726V102.075H247.076V102.983H246.726V103.891H247.076V104.799H246.726V105.707H247.076V106.614H246.726V106.86L246.475 106.996L246.642 107.304L245.773 107.774L245.606 107.467L244.738 107.937L244.905 108.245L244.036 108.716L243.87 108.408L243.001 108.879L243.168 109.187L242.299 109.657L242.133 109.35L241.264 109.82L241.431 110.128L240.563 110.599L240.396 110.291L239.527 110.762L239.694 111.069L238.826 111.54L238.659 111.232L237.791 111.703L237.957 112.011L237.089 112.481L237.005 112.326V112.247H236.962L236.922 112.174L236.787 112.247H236.655V111.307H237.005V110.368H236.655V109.428H237.005V108.488H236.655V107.549H237.005V106.609H236.655V105.67H237.005V104.73H236.655Z" stroke="#9A9A9A" stroke-width="0.7" stroke-dasharray="1 1"/>
<path d="M248.975 98.3704V97.4308H249.325V97.1751L249.568 97.0504L249.409 96.7388L250.278 96.2945L250.437 96.6061L251.305 96.1618L251.146 95.8502L252.014 95.4059L252.174 95.7175L253.042 95.2732L252.883 94.9616L253.751 94.5173L253.911 94.8289L254.779 94.3846L254.62 94.073L255.488 93.6287L255.648 93.9403L256.516 93.496L256.357 93.1845L257.225 92.7402L257.384 93.0517L258.253 92.6074L258.093 92.2959L258.962 91.8516L259.046 92.0162V92.0834H259.08L259.121 92.1631L259.277 92.0834H259.396V92.9913H259.046V93.8993H259.396V94.8072H259.046V95.7152H259.396V96.6231H259.046V97.5311H259.396V98.439H259.046V99.347H259.396V100.255H259.046V100.501L258.795 100.637L258.962 100.944L258.093 101.415L257.927 101.107L257.058 101.578L257.225 101.886L256.357 102.356L256.19 102.049L255.321 102.519L255.488 102.827L254.62 103.298L254.453 102.99L253.584 103.461L253.751 103.768L252.883 104.239L252.716 103.931L251.848 104.402L252.014 104.71L251.146 105.18L250.979 104.873L250.111 105.343L250.278 105.651L249.409 106.122L249.325 105.966V105.887H249.282L249.242 105.814L249.107 105.887H248.975V104.948H249.325V104.008H248.975V103.069H249.325V102.129H248.975V101.189H249.325V100.25H248.975V99.31H249.325V98.3704H248.975Z" stroke="#9A9A9A" stroke-width="0.7" stroke-dasharray="1 1"/>
<path d="M261.294 91.8852V90.9455H261.644V90.6898L261.888 90.5652L261.729 90.2536L262.597 89.8093L262.756 90.1209L263.625 89.6766L263.466 89.365L264.334 88.9207L264.493 89.2323L265.362 88.788L265.202 88.4764L266.071 88.0321L266.23 88.3437L267.099 87.8994L266.939 87.5878L267.808 87.1435L267.967 87.4551L268.836 87.0108L268.676 86.6992L269.545 86.2549L269.704 86.5665L270.572 86.1222L270.413 85.8106L271.281 85.3663L271.366 85.5309V85.5981H271.4L271.441 85.6779L271.597 85.5981H271.716V86.5061H271.366V87.414H271.716V88.322H271.366V89.2299H271.716V90.1379H271.366V91.0458H271.716V91.9538H271.366V92.8617H271.716V93.7697H271.366V94.0153L271.115 94.1513L271.281 94.459L270.413 94.9297L270.246 94.622L269.378 95.0927L269.545 95.4004L268.676 95.8711L268.509 95.5634L267.641 96.0341L267.808 96.3418L266.939 96.8125L266.772 96.5048L265.904 96.9755L266.071 97.2832L265.202 97.7539L265.036 97.4461L264.167 97.9168L264.334 98.2245L263.466 98.6952L263.299 98.3875L262.43 98.8582L262.597 99.1659L261.729 99.6366L261.644 99.4812V99.4022H261.602L261.562 99.3289L261.427 99.4022H261.294V98.4625H261.644V97.5229H261.294V96.5833H261.644V95.6437H261.294V94.704H261.644V93.7644H261.294V92.8248H261.644V91.8852H261.294Z" stroke="#9A9A9A" stroke-width="0.7" stroke-dasharray="1 1"/>
<path d="M232.875 37.7007V0.932886L275.673 23.2931V60.0609L232.875 37.7007Z" stroke="#9A9A9A" stroke-width="0.7"/>
<path d="M236.985 18.3789L237.07 18.2143L237.94 18.6639L237.779 18.9748L238.649 19.4243L238.81 19.1134L239.68 19.5629L239.52 19.8738L240.39 20.3233L240.55 20.0124L241.42 20.4619L241.26 20.7728L242.13 21.2224L242.29 20.9114L243.16 21.3609L243 21.6719L243.87 22.1214L244.03 21.8104L244.9 22.2599L244.74 22.5709L245.61 23.0204L245.77 22.7094L246.64 23.159L246.48 23.4699L246.725 23.5968V23.8398H247.075V24.7521H246.725V25.6643H247.075V26.5766H246.725V27.4888H247.075V28.401H246.725V29.3133H247.075V30.2255H246.725V31.1378H247.075V32.05H246.951L246.799 31.9728L246.76 32.05H246.725V32.1177L246.64 32.2847L245.77 31.8418L245.929 31.5299L245.059 31.087L244.9 31.3989L244.03 30.956L244.189 30.6441L243.319 30.2012L243.16 30.5131L242.29 30.0702L242.449 29.7583L241.579 29.3154L241.42 29.6273L240.55 29.1844L240.709 28.8725L239.839 28.4296L239.68 28.7415L238.81 28.2986L238.969 27.9867L238.099 27.5438L237.94 27.8557L237.07 27.4128L237.229 27.1009L236.985 26.9768V26.7312H236.635V25.8111H236.985V24.8909H236.635V23.9707H236.985V23.0505H236.635V22.1304H236.985V21.2102H236.635V20.29H236.985V19.3699H236.635V18.4497H236.763L236.909 18.5253L236.949 18.4497H236.985V18.3789Z" stroke="#9A9A9A" stroke-width="0.7" stroke-dasharray="1 1"/>
<path d="M249.404 24.865L249.489 24.7005L250.359 25.15L250.199 25.4609L251.069 25.9104L251.229 25.5995L252.099 26.049L251.939 26.36L252.809 26.8095L252.969 26.4985L253.839 26.948L253.679 27.259L254.549 27.7085L254.709 27.3975L255.579 27.847L255.419 28.158L256.289 28.6075L256.449 28.2966L257.319 28.7461L257.159 29.057L258.029 29.5065L258.189 29.1956L259.059 29.6451L258.899 29.956L259.144 30.083V30.326H259.494V31.2382H259.144V32.1504H259.494V33.0627H259.144V33.9749H259.494V34.8872H259.144V35.7994H259.494V36.7116H259.144V37.6239H259.494V38.5361H259.37L259.218 38.4589L259.179 38.5361H259.144V38.6038L259.059 38.7708L258.189 38.3279L258.348 38.016L257.478 37.5731L257.319 37.885L256.449 37.4421L256.608 37.1302L255.738 36.6873L255.579 36.9992L254.709 36.5563L254.868 36.2444L253.998 35.8015L253.839 36.1134L252.969 35.6705L253.128 35.3586L252.258 34.9157L252.099 35.2276L251.229 34.7847L251.388 34.4728L250.518 34.0299L250.359 34.3418L249.489 33.8989L249.648 33.587L249.404 33.4629V33.2174H249.054V32.2972H249.404V31.377H249.054V30.4568H249.404V29.5367H249.054V28.6165H249.404V27.6963H249.054V26.7762H249.404V25.856H249.054V24.9358H249.182L249.329 25.0114L249.368 24.9358H249.404V24.865Z" stroke="#9A9A9A" stroke-width="0.7" stroke-dasharray="1 1"/>
<path d="M261.823 31.2228L261.908 31.0583L262.778 31.5078L262.618 31.8188L263.488 32.2683L263.648 31.9573L264.518 32.4068L264.358 32.7178L265.228 33.1673L265.388 32.8563L266.258 33.3059L266.098 33.6168L266.968 34.0663L267.128 33.7554L267.998 34.2049L267.838 34.5158L268.708 34.9653L268.868 34.6544L269.738 35.1039L269.578 35.4148L270.448 35.8644L270.608 35.5534L271.478 36.0029L271.318 36.3139L271.563 36.4408V36.6838H271.913V37.596H271.563V38.5083H271.913V39.4205H271.563V40.3328H271.913V41.245H271.563V42.1572H271.913V43.0695H271.563V43.9817H271.913V44.894H271.789L271.637 44.8167L271.598 44.894H271.563V44.9616L271.478 45.1286L270.608 44.6857L270.767 44.3738L269.897 43.9309L269.738 44.2428L268.868 43.7999L269.027 43.488L268.157 43.0451L267.998 43.357L267.128 42.9141L267.287 42.6022L266.417 42.1593L266.258 42.4712L265.388 42.0283L265.547 41.7164L264.677 41.2735L264.518 41.5854L263.648 41.1425L263.807 40.8306L262.937 40.3877L262.778 40.6996L261.908 40.2567L262.067 39.9448L261.823 39.8207V39.5752H261.473V38.655H261.823V37.7348H261.473V36.8147H261.823V35.8945H261.473V34.9743H261.823V34.0542H261.473V33.134H261.823V32.2138H261.473V31.2936H261.601L261.748 31.3693L261.787 31.2936H261.823V31.2228Z" stroke="#9A9A9A" stroke-width="0.7" stroke-dasharray="1 1"/>
<path d="M169.664 22.9874L213.106 0.354233V37.8035L169.664 60.5276V22.9874Z" fill="white"/>
<path d="M170.164 59.7018V23.2907L212.606 1.17852V37.5008L170.164 59.7018Z" stroke="#9A9A9A" stroke-opacity="0.65"/>
<path d="M173.854 37.56V36.6204H174.204V36.3647L174.448 36.2401L174.288 35.9285L175.157 35.4842L175.316 35.7958L176.185 35.3515L176.025 35.0399L176.894 34.5956L177.053 34.9072L177.921 34.4629L177.762 34.1513L178.631 33.707L178.79 34.0186L179.658 33.5743L179.499 33.2627L180.367 32.8184L180.527 33.13L181.395 32.6857L181.236 32.3741L182.104 31.9298L182.264 32.2414L183.132 31.7971L182.973 31.4855L183.841 31.0412L183.925 31.2058V31.273H183.96L184.001 31.3528L184.156 31.273H184.275V32.181H183.925V33.0889H184.275V33.9969H183.925V34.9048H184.275V35.8128H183.925V36.7207H184.275V37.6287H183.925V38.5366H184.275V39.4446H183.925V39.6901L183.674 39.8262L183.841 40.1339L182.973 40.6046L182.806 40.2969L181.937 40.7676L182.104 41.0753L181.236 41.546L181.069 41.2383L180.201 41.709L180.367 42.0167L179.499 42.4874L179.332 42.1796L178.464 42.6503L178.631 42.958L177.762 43.4287L177.595 43.121L176.727 43.5917L176.894 43.8994L176.025 44.3701L175.858 44.0624L174.99 44.5331L175.157 44.8408L174.288 45.3115L174.204 45.1561V45.077H174.161L174.122 45.0038L173.986 45.077H173.854V44.1374H174.204V43.1978H173.854V42.2582H174.204V41.3185H173.854V40.3789H174.204V39.4393H173.854V38.4997H174.204V37.56H173.854Z" fill="white" stroke="#919191" stroke-width="0.7" stroke-dasharray="1 1"/>
<path d="M186.175 31.2002V30.2606H186.525V30.0049L186.768 29.8802L186.609 29.5686L187.477 29.1243L187.637 29.4359L188.505 28.9916L188.346 28.68L189.214 28.2357L189.374 28.5473L190.242 28.103L190.083 27.7914L190.951 27.3471L191.111 27.6587L191.979 27.2144L191.82 26.9029L192.688 26.4586L192.847 26.7701L193.716 26.3258L193.557 26.0143L194.425 25.57L194.584 25.8815L195.453 25.4372L195.293 25.1257L196.162 24.6814L196.246 24.846V24.9132H196.28L196.321 24.993L196.477 24.9132H196.596V25.8211H196.246V26.7291H196.596V27.637H196.246V28.545H196.596V29.4529H196.246V30.3609H196.596V31.2688H196.246V32.1768H196.596V33.0847H196.246V33.3303L195.995 33.4664L196.162 33.7741L195.293 34.2448L195.127 33.937L194.258 34.4077L194.425 34.7155L193.557 35.1861L193.39 34.8784L192.521 35.3491L192.688 35.6568L191.82 36.1275L191.653 35.8198L190.784 36.2905L190.951 36.5982L190.083 37.0689L189.916 36.7612L189.048 37.2319L189.214 37.5396L188.346 38.0103L188.179 37.7026L187.311 38.1733L187.477 38.481L186.609 38.9517L186.525 38.7963V38.7172H186.482L186.442 38.644L186.307 38.7172H186.175V37.7776H186.525V36.838H186.175V35.8983H186.525V34.9587H186.175V34.0191H186.525V33.0795H186.175V32.1398H186.525V31.2002H186.175Z" stroke="#9A9A9A" stroke-width="0.7" stroke-dasharray="1 1"/>
<path d="M198.494 24.7156V23.776H198.844V23.5203L199.088 23.3956L198.929 23.0841L199.797 22.6398L199.956 22.9513L200.825 22.507L200.665 22.1955L201.534 21.7512L201.693 22.0628L202.562 21.6185L202.402 21.3069L203.271 20.8626L203.43 21.1742L204.299 20.7299L204.139 20.4183L205.008 19.974L205.167 20.2856L206.035 19.8413L205.876 19.5297L206.745 19.0854L206.904 19.397L207.772 18.9527L207.613 18.6411L208.481 18.1968L208.566 18.3614V18.4286H208.6L208.641 18.5084L208.797 18.4286H208.916V19.3366H208.566V20.2445H208.916V21.1525H208.566V22.0604H208.916V22.9684H208.566V23.8763H208.916V24.7843H208.566V25.6922H208.916V26.6002H208.566V26.8457L208.315 26.9818L208.481 27.2895L207.613 27.7602L207.446 27.4525L206.578 27.9232L206.745 28.2309L205.876 28.7016L205.709 28.3939L204.841 28.8645L205.008 29.1723L204.139 29.6429L203.972 29.3352L203.104 29.8059L203.271 30.1136L202.402 30.5843L202.236 30.2766L201.367 30.7473L201.534 31.055L200.665 31.5257L200.499 31.218L199.63 31.6887L199.797 31.9964L198.929 32.4671L198.844 32.3117V32.2326H198.802L198.762 32.1594L198.627 32.2326H198.494V31.293H198.844V30.3534H198.494V29.4138H198.844V28.4741H198.494V27.5345H198.844V26.5949H198.494V25.6553H198.844V24.7156H198.494Z" stroke="#9A9A9A" stroke-width="0.7" stroke-dasharray="1 1"/>
<path d="M170.029 104.751V68.0058L212.471 91.7751V126.324L170.029 104.751Z" fill="white" stroke="#9A9A9A" stroke-width="0.7"/>
<path d="M173.961 85.2149L174.046 85.0504L174.916 85.4999L174.755 85.8109L175.625 86.2604L175.786 85.9494L176.656 86.3989L176.495 86.7099L177.365 87.1594L177.526 86.8484L178.396 87.298L178.235 87.6089L179.105 88.0584L179.266 87.7475L180.136 88.197L179.975 88.5079L180.846 88.9574L181.006 88.6465L181.876 89.096L181.716 89.4069L182.586 89.8565L182.746 89.5455L183.616 89.995L183.456 90.306L183.701 90.4329V90.6759H184.051V91.5881H183.701V92.5004H184.051V93.4126H183.701V94.3249H184.051V95.2371H183.701V96.1493H184.051V97.0616H183.701V97.9738H184.051V98.8861H183.927L183.775 98.8088L183.736 98.8861H183.701V98.9537L183.616 99.1207L182.746 98.6778L182.905 98.3659L182.035 97.923L181.876 98.2349L181.006 97.792L181.165 97.4801L180.295 97.0372L180.136 97.3491L179.266 96.9062L179.425 96.5943L178.555 96.1514L178.396 96.4633L177.526 96.0204L177.685 95.7085L176.815 95.2656L176.656 95.5775L175.786 95.1346L175.945 94.8227L175.075 94.3798L174.916 94.6917L174.046 94.2488L174.205 93.9369L173.961 93.8128V93.5673H173.611V92.6471H173.961V91.7269H173.611V90.8068H173.961V89.8866H173.611V88.9664H173.961V88.0463H173.611V87.1261H173.961V86.2059H173.611V85.2857H173.739L173.885 85.3614L173.924 85.2857H173.961V85.2149Z" stroke="#9A9A9A" stroke-width="0.7" stroke-dasharray="1 1"/>
<path d="M186.38 91.6869L186.465 91.5223L187.335 91.9718L187.175 92.2828L188.045 92.7323L188.205 92.4214L189.075 92.8709L188.915 93.1818L189.785 93.6313L189.945 93.3204L190.815 93.7699L190.655 94.0808L191.525 94.5303L191.685 94.2194L192.555 94.6689L192.395 94.9799L193.265 95.4294L193.425 95.1184L194.295 95.5679L194.135 95.8789L195.005 96.3284L195.165 96.0174L196.035 96.4669L195.875 96.7779L196.12 96.9048V97.1478H196.47V98.0601H196.12V98.9723H196.47V99.8845H196.12V100.797H196.47V101.709H196.12V102.621H196.47V103.534H196.12V104.446H196.47V105.358H196.346L196.194 105.281L196.155 105.358H196.12V105.426L196.035 105.593L195.165 105.15L195.324 104.838L194.454 104.395L194.295 104.707L193.425 104.264L193.584 103.952L192.714 103.509L192.555 103.821L191.685 103.378L191.844 103.066L190.974 102.623L190.815 102.935L189.945 102.492L190.104 102.18L189.234 101.738L189.075 102.049L188.205 101.607L188.364 101.295L187.494 100.852L187.335 101.164L186.465 100.721L186.624 100.409L186.38 100.285V100.039H186.03V99.1191H186.38V98.1989H186.03V97.2787H186.38V96.3585H186.03V95.4384H186.38V94.5182H186.03V93.598H186.38V92.6778H186.03V91.7577H186.158L186.305 91.8333L186.344 91.7577H186.38V91.6869Z" stroke="#9A9A9A" stroke-width="0.7" stroke-dasharray="1 1"/>
<path d="M198.799 98.0594L198.884 97.8949L199.754 98.3444L199.594 98.6554L200.464 99.1049L200.624 98.7939L201.494 99.2434L201.334 99.5544L202.204 100.004L202.364 99.693L203.234 100.142L203.074 100.453L203.944 100.903L204.104 100.592L204.974 101.041L204.814 101.352L205.684 101.802L205.844 101.491L206.714 101.941L206.554 102.251L207.424 102.701L207.584 102.39L208.454 102.84L208.294 103.15L208.539 103.277V103.52H208.889V104.433H208.539V105.345H208.889V106.257H208.539V107.169H208.889V108.082H208.539V108.994H208.889V109.906H208.539V110.818H208.889V111.731H208.765L208.613 111.653L208.574 111.731H208.539V111.798L208.454 111.965L207.584 111.522L207.743 111.21L206.873 110.768L206.714 111.079L205.844 110.637L206.003 110.325L205.133 109.882L204.974 110.194L204.104 109.751L204.263 109.439L203.393 108.996L203.234 109.308L202.364 108.865L202.523 108.553L201.653 108.11L201.494 108.422L200.624 107.979L200.783 107.667L199.913 107.224L199.754 107.536L198.884 107.093L199.043 106.781L198.799 106.657V106.412H198.449V105.492H198.799V104.571H198.449V103.651H198.799V102.731H198.449V101.811H198.799V100.891H198.449V99.9706H198.799V99.0504H198.449V98.1302H198.577L198.724 98.2059L198.763 98.1302H198.799V98.0594Z" stroke="#9A9A9A" stroke-width="0.7" stroke-dasharray="1 1"/>
</g>
<path d="M216.996 107.556L222.683 104.645L228.335 107.556M216.996 107.556L222.683 110.498M216.996 107.556V113.379L222.683 116.274M222.683 110.498L228.335 107.556M222.683 110.498V116.274M228.335 107.556V113.379L222.683 116.274" stroke="#9A9A9A" stroke-width="0.7" stroke-dasharray="1 1"/>
<path d="M222.326 104.644V105.129H223.026V104.644H222.326ZM222.326 106.099V107.07H223.026V106.099H222.326ZM222.326 108.04V109.011H223.026V108.04H222.326ZM222.326 109.981V110.466H223.026V109.981H222.326Z" fill="#9A9A9A"/>
<path d="M222.429 110.194L221.961 110.437L222.34 111.025L222.808 110.783L222.429 110.194ZM221.023 110.922L220.086 111.407L220.465 111.996L221.402 111.51L221.023 110.922ZM219.149 111.892L218.211 112.378L218.59 112.966L219.528 112.481L219.149 111.892ZM217.274 112.863L216.805 113.105L217.184 113.694L217.653 113.451L217.274 112.863Z" fill="#9A9A9A"/>
<path d="M222.487 110.783L222.955 111.025L223.334 110.437L222.866 110.194L222.487 110.783ZM223.893 111.51L224.83 111.996L225.209 111.407L224.272 110.922L223.893 111.51ZM225.767 112.481L226.705 112.966L227.084 112.378L226.146 111.892L225.767 112.481ZM227.642 113.451L228.111 113.694L228.49 113.105L228.021 112.863L227.642 113.451Z" fill="#9A9A9A"/>
<path d="M279.052 61.0358L284.739 58.1245L290.391 61.0358M279.052 61.0358L284.739 63.9779M279.052 61.0358V66.8584L284.739 69.7543M284.739 63.9779L290.391 61.0358M284.739 63.9779V69.7543M290.391 61.0358V66.8584L284.739 69.7543" stroke="#9A9A9A" stroke-width="0.7" stroke-dasharray="1 1"/>
<path d="M284.382 58.1239V58.6091H285.082V58.1239H284.382ZM284.382 59.5796V60.55H285.082V59.5796H284.382ZM284.382 61.5204V62.4909H285.082V61.5204H284.382ZM284.382 63.4613V63.9465H285.082V63.4613H284.382Z" fill="#9A9A9A"/>
<path d="M284.485 63.6745L284.017 63.9171L284.395 64.5057L284.864 64.2631L284.485 63.6745ZM283.079 64.4024L282.142 64.8876L282.521 65.4761L283.458 64.9909L283.079 64.4024ZM281.204 65.3728L280.267 65.858L280.646 66.4465L281.583 65.9613L281.204 65.3728ZM279.33 66.3432L278.861 66.5858L279.24 67.1744L279.709 66.9317L279.33 66.3432Z" fill="#9A9A9A"/>
<path d="M284.542 64.2631L285.011 64.5057L285.39 63.9171L284.921 63.6745L284.542 64.2631ZM285.948 64.9909L286.885 65.4761L287.264 64.8876L286.327 64.4024L285.948 64.9909ZM287.823 65.9613L288.76 66.4465L289.139 65.858L288.202 65.3728L287.823 65.9613ZM289.698 66.9317L290.166 67.1744L290.545 66.5858L290.077 66.3432L289.698 66.9317Z" fill="#9A9A9A"/>
<path d="M216.995 16.6201L222.682 13.7088L228.334 16.6201M216.995 16.6201L222.682 19.5622M216.995 16.6201V22.4427L222.682 25.3386M222.682 19.5622L228.334 16.6201M222.682 19.5622V25.3386M228.334 16.6201V22.4427L222.682 25.3386" stroke="#9A9A9A" stroke-width="0.7" stroke-dasharray="1 1"/>
<path d="M222.326 13.7088V14.194H223.026V13.7088H222.326ZM222.326 15.1645V16.1349H223.026V15.1645H222.326ZM222.326 17.1053V18.0758H223.026V17.1053H222.326ZM222.326 19.0462V19.5314H223.026V19.0462H222.326Z" fill="#9A9A9A"/>
<path d="M222.429 19.2591L221.961 19.5017L222.34 20.0902L222.808 19.8476L222.429 19.2591ZM221.023 19.9869L220.086 20.4721L220.465 21.0607L221.402 20.5755L221.023 19.9869ZM219.149 20.9574L218.211 21.4426L218.59 22.0311L219.528 21.5459L219.149 20.9574ZM217.274 21.9278L216.805 22.1704L217.184 22.7589L217.653 22.5163L217.274 21.9278Z" fill="#9A9A9A"/>
<path d="M222.486 19.8476L222.955 20.0902L223.334 19.5017L222.865 19.2591L222.486 19.8476ZM223.892 20.5755L224.83 21.0607L225.209 20.4721L224.271 19.9869L223.892 20.5755ZM225.767 21.5459L226.704 22.0311L227.083 21.4426L226.146 20.9574L225.767 21.5459ZM227.642 22.5163L228.11 22.7589L228.489 22.1704L228.021 21.9278L227.642 22.5163Z" fill="#9A9A9A"/>
<path d="M216.995 65.6474L222.681 62.7361L228.334 65.6474M216.995 65.6474L222.681 68.5895M216.995 65.6474V71.47L222.681 74.3659M222.681 68.5895L228.334 65.6474M222.681 68.5895V74.3659M228.334 65.6474V71.47L222.681 74.3659" stroke="#9A9A9A" stroke-width="0.7" stroke-dasharray="1 1"/>
<path d="M222.327 62.7362V63.2214H223.027V62.7362H222.327ZM222.327 64.1918V65.1622H223.027V64.1918H222.327ZM222.327 66.1327V67.1031H223.027V66.1327H222.327ZM222.327 68.0735V68.5587H223.027V68.0735H222.327Z" fill="#9A9A9A"/>
<path d="M222.43 68.2867L221.961 68.5293L222.34 69.1179L222.809 68.8753L222.43 68.2867ZM221.024 69.0146L220.086 69.4998L220.465 70.0883L221.403 69.6031L221.024 69.0146ZM219.149 69.985L218.212 70.4702L218.591 71.0587L219.528 70.5735L219.149 69.985ZM217.274 70.9554L216.805 71.198L217.184 71.7866L217.653 71.544L217.274 70.9554Z" fill="#9A9A9A"/>
<path d="M222.487 68.8753L222.956 69.1179L223.335 68.5293L222.866 68.2867L222.487 68.8753ZM223.893 69.6031L224.83 70.0883L225.209 69.4998L224.272 69.0146L223.893 69.6031ZM225.768 70.5735L226.705 71.0587L227.084 70.4702L226.147 69.985L225.768 70.5735ZM227.643 71.544L228.111 71.7866L228.49 71.198L228.021 70.9554L227.643 71.544Z" fill="#9A9A9A"/>
<path d="M140.082 58.0698L151.577 52.1852L163.002 58.0698M140.082 58.0698L151.577 64.0168M140.082 58.0698V69.8392L151.577 75.6928M151.577 64.0168L163.002 58.0698M151.577 64.0168V75.6928M163.002 58.0698V69.8392L151.577 75.6928" stroke="#8A3CFF" stroke-width="0.7" stroke-dasharray="1 1"/>
<path d="M151.216 52.1853V52.6757H151.916V52.1853H151.216ZM151.216 53.6565V54.6372H151.916V53.6565H151.216ZM151.216 55.618V56.5988H151.916V55.618H151.216ZM151.216 57.5796V58.5604H151.916V57.5796H151.216ZM151.216 59.5412V60.5219H151.916V59.5412H151.216ZM151.216 61.5027V62.4835H151.916V61.5027H151.216ZM151.216 63.4643V63.9547H151.916V63.4643H151.216Z" fill="#8A3CFF"/>
<path d="M151.26 63.7055L150.787 63.9507L151.166 64.5392L151.639 64.294L151.26 63.7055ZM149.839 64.4411L148.892 64.9314L149.271 65.52L150.218 65.0296L149.839 64.4411ZM147.945 65.4218L146.997 65.9122L147.376 66.5008L148.324 66.0104L147.945 65.4218ZM146.05 66.4026L145.103 66.893L145.482 67.4815L146.429 66.9912L146.05 66.4026ZM144.155 67.3834L143.208 67.8738L143.587 68.4623L144.534 67.9719L144.155 67.3834ZM142.261 68.3642L141.313 68.8546L141.692 69.4431L142.64 68.9527L142.261 68.3642ZM140.366 69.345L139.892 69.5902L140.271 70.1787L140.745 69.9335L140.366 69.345Z" fill="#8A3CFF"/>
<path d="M151.376 64.294L151.85 64.5392L152.229 63.9507L151.755 63.7055L151.376 64.294ZM152.797 65.0296L153.745 65.52L154.124 64.9314L153.176 64.4411L152.797 65.0296ZM154.692 66.0104L155.64 66.5008L156.019 65.9122L155.071 65.4218L154.692 66.0104ZM156.587 66.9912L157.534 67.4815L157.913 66.893L156.966 66.4026L156.587 66.9912ZM158.482 67.9719L159.429 68.4623L159.808 67.8738L158.861 67.3834L158.482 67.9719ZM160.376 68.9527L161.324 69.4431L161.703 68.8546L160.755 68.3642L160.376 68.9527ZM162.271 69.9335L162.745 70.1787L163.124 69.5902L162.65 69.345L162.271 69.9335Z" fill="#8A3CFF"/>
<defs>
<filter id="filter0_d" x="0.394287" y="15.3969" width="181.565" height="160.796" filterUnits="userSpaceOnUse" color-interpolation-filters="sRGB">
<feFlood flood-opacity="0" result="BackgroundImageFix"/>
<feColorMatrix in="SourceAlpha" type="matrix" values="0 0 0 0 0 0 0 0 0 0 0 0 0 0 0 0 0 0 127 0"/>
<feOffset dy="32"/>
<feGaussianBlur stdDeviation="30"/>
<feColorMatrix type="matrix" values="0 0 0 0 0.27451 0 0 0 0 0.262745 0 0 0 0 0.309804 0 0 0 0.08 0"/>
<feBlend mode="normal" in2="BackgroundImageFix" result="effect1_dropShadow"/>
<feBlend mode="normal" in="SourceGraphic" in2="effect1_dropShadow" result="shape"/>
</filter>
<filter id="filter1_d" x="106.327" y="71.546" width="15.0142" height="21.1785" filterUnits="userSpaceOnUse" color-interpolation-filters="sRGB">
<feFlood flood-opacity="0" result="BackgroundImageFix"/>
<feColorMatrix in="SourceAlpha" type="matrix" values="0 0 0 0 0 0 0 0 0 0 0 0 0 0 0 0 0 0 127 0"/>
<feOffset dy="1"/>
<feGaussianBlur stdDeviation="0.9"/>
<feColorMatrix type="matrix" values="0 0 0 0 0 0 0 0 0 0 0 0 0 0 0 0 0 0 0.65 0"/>
<feBlend mode="normal" in2="BackgroundImageFix" result="effect1_dropShadow"/>
<feBlend mode="normal" in="SourceGraphic" in2="effect1_dropShadow" result="shape"/>
</filter>
<clipPath id="clip0">
<rect width="17.8328" height="17.8328" fill="white" transform="translate(104.127 72.346)"/>
</clipPath>
</defs>
</svg>
